<?xml version="1.0" standalone="yes"?>

<svg version="1.1" viewBox="0.0 0.0 354.4776902887139 605.8320209973754" fill="none" stroke="none" stroke-linecap="square" stroke-miterlimit="10" xmlns="http://www.w3.org/2000/svg" xmlns:xlink="http://www.w3.org/1999/xlink"><clipPath id="p.0"><path d="m0 0l354.4777 0l0 605.83203l-354.4777 0l0 -605.83203z" clip-rule="nonzero"></path></clipPath><g clip-path="url(#p.0)"><path fill="#000000" fill-opacity="0.0" d="m0 0l354.4777 0l0 605.83203l-354.4777 0z" fill-rule="evenodd"></path><path fill="#000000" fill-opacity="0.0" d="m96.343834 185.021l0 0c0 -9.587433 7.772148 -17.359573 17.359581 -17.359573l148.084 0c4.6040344 0 9.019501 1.828949 12.275055 5.084503c3.2555542 3.2555542 5.084503 7.6710205 5.084503 12.27507l0 69.438324c0 9.587433 -7.7721252 17.359589 -17.359558 17.359589l-148.084 0c-9.587433 0 -17.359581 -7.772156 -17.359581 -17.359589z" fill-rule="evenodd"></path><path stroke="#000000" stroke-width="3.0" stroke-linejoin="round" stroke-linecap="butt" d="m96.343834 185.021l0 0c0 -9.587433 7.772148 -17.359573 17.359581 -17.359573l148.084 0c4.6040344 0 9.019501 1.828949 12.275055 5.084503c3.2555542 3.2555542 5.084503 7.6710205 5.084503 12.27507l0 69.438324c0 9.587433 -7.7721252 17.359589 -17.359558 17.359589l-148.084 0c-9.587433 0 -17.359581 -7.772156 -17.359581 -17.359589z" fill-rule="evenodd"></path><path fill="#000000" d="m144.56795 191.14453l8.171875 0l0 1.5l-3.234375 0l0 10.53125l3.234375 0l0 1.484375l-8.171875 0l0 -1.484375l3.171875 0l0 -10.53125l-3.171875 0l0 -1.5zm10.883072 8.40625q0 -1.109375 0.28125 -2.046875q0.28125 -0.953125 0.796875 -1.625q0.53125 -0.6875 1.265625 -1.0625q0.75 -0.375 1.671875 -0.375q0.890625 0 1.5625 0.296875q0.671875 0.296875 1.171875 0.875l0 -5.203125l1.71875 0l0 14.25l-1.578125 0l-0.078125 -1.0625q-0.5 0.609375 -1.203125 0.9375q-0.6875 0.3125 -1.625 0.3125q-0.90625 0 -1.640625 -0.390625q-0.734375 -0.390625 -1.265625 -1.078125q-0.515625 -0.6875 -0.796875 -1.609375q-0.28125 -0.9375 -0.28125 -2.015625l0 -0.203125zm1.703125 0.203125q0 0.734375 0.15625 1.390625q0.171875 0.65625 0.5 1.15625q0.328125 0.5 0.828125 0.796875q0.515625 0.296875 1.234375 0.296875q0.4375 0 0.78125 -0.09375q0.359375 -0.109375 0.640625 -0.296875q0.296875 -0.203125 0.515625 -0.46875q0.21875 -0.265625 0.390625 -0.578125l0 -4.65625q-0.34375 -0.625 -0.90625 -1.015625q-0.5625 -0.390625 -1.40625 -0.390625q-0.71875 0 -1.234375 0.296875q-0.515625 0.296875 -0.84375 0.8125q-0.328125 0.5 -0.5 1.171875q-0.15625 0.65625 -0.15625 1.375l0 0.203125zm14.242447 5.09375q-1.0625 0 -1.953125 -0.359375q-0.875 -0.359375 -1.515625 -1.015625q-0.625 -0.65625 -0.984375 -1.546875q-0.34375 -0.890625 -0.34375 -1.9375l0 -0.390625q0 -1.203125 0.390625 -2.15625q0.390625 -0.96875 1.03125 -1.625q0.65625 -0.671875 1.46875 -1.015625q0.828125 -0.359375 1.6875 -0.359375q1.078125 0 1.890625 0.375q0.8125 0.375 1.34375 1.046875q0.546875 0.65625 0.8125 1.5625q0.265625 0.890625 0.265625 1.9375l0 0.765625l-7.171875 0q0.03125 0.6875 0.265625 1.296875q0.234375 0.59375 0.640625 1.046875q0.421875 0.453125 1.0 0.71875q0.578125 0.25 1.265625 0.25q0.921875 0 1.625 -0.359375q0.71875 -0.375 1.203125 -0.984375l1.046875 0.8125q-0.25 0.375 -0.625 0.734375q-0.375 0.34375 -0.875 0.609375q-0.484375 0.265625 -1.109375 0.421875q-0.625 0.171875 -1.359375 0.171875zm-0.21875 -9.0q-0.515625 0 -0.984375 0.1875q-0.46875 0.1875 -0.84375 0.5625q-0.359375 0.359375 -0.625 0.890625q-0.25 0.53125 -0.34375 1.234375l5.390625 0l0 -0.125q-0.03125 -0.5 -0.1875 -0.984375q-0.15625 -0.5 -0.484375 -0.890625q-0.3125 -0.390625 -0.796875 -0.625q-0.46875 -0.25 -1.125 -0.25zm8.523697 -1.21875l0.125 1.484375q0.546875 -0.78125 1.34375 -1.21875q0.796875 -0.453125 1.78125 -0.453125q0.78125 0 1.421875 0.21875q0.65625 0.21875 1.109375 0.703125q0.453125 0.46875 0.6875 1.203125q0.25 0.71875 0.25 1.71875l0 6.375l-1.703125 0l0 -6.34375q0 -0.65625 -0.15625 -1.125q-0.140625 -0.46875 -0.4375 -0.75q-0.296875 -0.28125 -0.71875 -0.40625q-0.421875 -0.140625 -0.96875 -0.140625q-0.859375 0 -1.515625 0.4375q-0.65625 0.421875 -1.046875 1.125l0 7.203125l-1.71875 0l0 -10.03125l1.546875 0zm13.711197 -2.4375l0 2.4375l3.828125 0l0 1.3125l-3.828125 0l0 5.46875q0 0.578125 0.140625 0.96875q0.15625 0.375 0.421875 0.609375q0.265625 0.21875 0.59375 0.3125q0.34375 0.09375 0.71875 0.09375q0.28125 0 0.578125 -0.03125q0.296875 -0.046875 0.578125 -0.078125q0.28125 -0.046875 0.53125 -0.09375q0.25 -0.0625 0.40625 -0.09375l0.234375 1.203125q-0.203125 0.140625 -0.515625 0.234375q-0.296875 0.09375 -0.671875 0.15625q-0.359375 0.078125 -0.765625 0.109375q-0.390625 0.046875 -0.796875 0.046875q-0.671875 0 -1.25 -0.1875q-0.578125 -0.1875 -1.015625 -0.59375q-0.421875 -0.421875 -0.671875 -1.078125q-0.234375 -0.65625 -0.234375 -1.578125l0 -5.46875l-2.640625 0l0 -1.3125l2.640625 0l0 -2.4375l1.71875 0zm7.414322 2.4375l5.125 0l0 8.546875l3.265625 0l0 1.484375l-8.390625 0l0 -1.484375l3.40625 0l0 -7.0625l-3.40625 0l0 -1.484375zm3.1875 -2.640625q0 -0.421875 0.25 -0.71875q0.25 -0.296875 0.78125 -0.296875q0.5 0 0.765625 0.296875q0.265625 0.296875 0.265625 0.71875q0 0.421875 -0.265625 0.703125q-0.265625 0.265625 -0.765625 0.265625q-0.53125 0 -0.78125 -0.265625q-0.25 -0.28125 -0.25 -0.703125zm10.289322 12.671875l0 -8.71875l-2.765625 0l0 -1.3125l2.765625 0l0 -0.71875q0 -0.953125 0.28125 -1.6875q0.28125 -0.734375 0.796875 -1.21875q0.515625 -0.484375 1.234375 -0.734375q0.734375 -0.265625 1.625 -0.265625q0.609375 0 1.1875 0.109375q0.578125 0.109375 1.203125 0.265625l-0.21875 1.40625q-0.375 -0.125 -0.890625 -0.21875q-0.5 -0.09375 -1.0625 -0.09375q-1.21875 0 -1.828125 0.609375q-0.59375 0.59375 -0.59375 1.828125l0 0.71875l3.859375 0l0 1.3125l-3.859375 0l0 8.71875l-1.734375 0zm12.345306 -3.5625l0.4375 1.21875l3.0625 -7.6875l1.921875 0l-5.09375 11.578125q-0.171875 0.390625 -0.453125 0.828125q-0.265625 0.4375 -0.65625 0.796875q-0.390625 0.375 -0.921875 0.625q-0.515625 0.25 -1.1875 0.25q-0.125 0 -0.28125 -0.015625q-0.140625 0 -0.296875 -0.03125q-0.140625 -0.015625 -0.265625 -0.046875q-0.125 -0.03125 -0.21875 -0.046875l0.28125 -1.40625q0.0625 0 0.171875 0.015625q0.125 0.015625 0.234375 0.015625q0.125 0.015625 0.234375 0.015625q0.109375 0 0.171875 0q0.359375 0 0.640625 -0.203125q0.296875 -0.1875 0.515625 -0.453125q0.234375 -0.265625 0.390625 -0.5625q0.171875 -0.28125 0.265625 -0.46875l0.6875 -1.328125l-4.328125 -9.5625l1.921875 0l2.765625 6.46875z" fill-rule="nonzero"></path><path fill="#000000" d="m136.88852 214.61328l-4.171875 0l0 12.046875l-1.671875 0l0 -12.046875l-4.1718826 0l0 -1.46875l10.015633 0l0 1.46875zm3.804947 3.5q0.546875 -0.78125 1.328125 -1.21875q0.796875 -0.453125 1.765625 -0.453125q0.796875 0 1.4375 0.234375q0.640625 0.21875 1.09375 0.703125q0.46875 0.484375 0.703125 1.21875q0.25 0.734375 0.25 1.75l0 6.3125l-1.71875 0l0 -6.34375q0 -1.234375 -0.59375 -1.828125q-0.578125 -0.609375 -1.671875 -0.59375q-0.828125 0 -1.5 0.40625q-0.671875 0.40625 -1.09375 1.0625l0 7.296875l-1.71875 0l0 -14.25l1.71875 0l0 5.703125zm16.054947 -1.671875q0.25 0 0.5 0.015625q0.265625 0 0.5 0.046875q0.234375 0.03125 0.4375 0.078125q0.203125 0.046875 0.328125 0.09375l-0.234375 1.6875q-0.5 -0.125 -0.953125 -0.171875q-0.4375 -0.046875 -0.9375 -0.046875q-1.203125 0 -1.953125 0.546875q-0.75 0.546875 -1.09375 1.53125l0 6.4375l-1.734375 0l0 -10.03125l1.640625 0l0.078125 1.59375q0.609375 -0.828125 1.46875 -1.296875q0.859375 -0.484375 1.953125 -0.484375zm9.054947 10.40625q-1.0625 0 -1.953125 -0.359375q-0.875 -0.359375 -1.515625 -1.015625q-0.625 -0.65625 -0.984375 -1.546875q-0.34375 -0.890625 -0.34375 -1.9375l0 -0.390625q0 -1.203125 0.390625 -2.15625q0.390625 -0.96875 1.03125 -1.625q0.65625 -0.671875 1.46875 -1.015625q0.828125 -0.359375 1.6875 -0.359375q1.078125 0 1.890625 0.375q0.8125 0.375 1.34375 1.046875q0.546875 0.65625 0.8125 1.5625q0.265625 0.890625 0.265625 1.9375l0 0.765625l-7.171875 0q0.03125 0.6875 0.265625 1.296875q0.234375 0.59375 0.640625 1.046875q0.421875 0.453125 1.0 0.71875q0.578125 0.25 1.265625 0.25q0.921875 0 1.625 -0.359375q0.71875 -0.375 1.203125 -0.984375l1.046875 0.8125q-0.25 0.375 -0.625 0.734375q-0.375 0.34375 -0.875 0.609375q-0.484375 0.265625 -1.109375 0.421875q-0.625 0.171875 -1.359375 0.171875zm-0.21875 -9.0q-0.515625 0 -0.984375 0.1875q-0.46875 0.1875 -0.84375 0.5625q-0.359375 0.359375 -0.625 0.890625q-0.25 0.53125 -0.34375 1.234375l5.390625 0l0 -0.125q-0.03125 -0.5 -0.1875 -0.984375q-0.15625 -0.5 -0.484375 -0.890625q-0.3125 -0.390625 -0.796875 -0.625q-0.46875 -0.25 -1.125 -0.25zm13.570572 8.8125q-0.09375 -0.1875 -0.15625 -0.484375q-0.0625 -0.296875 -0.09375 -0.609375q-0.25 0.265625 -0.578125 0.5q-0.3125 0.21875 -0.703125 0.40625q-0.375 0.171875 -0.8125 0.265625q-0.4375 0.109375 -0.9375 0.109375q-0.796875 0 -1.4375 -0.234375q-0.640625 -0.234375 -1.09375 -0.625q-0.453125 -0.390625 -0.703125 -0.9375q-0.234375 -0.546875 -0.234375 -1.171875q0 -0.828125 0.328125 -1.453125q0.328125 -0.625 0.921875 -1.03125q0.609375 -0.40625 1.453125 -0.609375q0.859375 -0.21875 1.90625 -0.21875l1.875 0l0 -0.78125q0 -0.453125 -0.171875 -0.8125q-0.171875 -0.359375 -0.484375 -0.609375q-0.296875 -0.265625 -0.734375 -0.40625q-0.4375 -0.140625 -0.984375 -0.140625q-0.515625 0 -0.921875 0.140625q-0.40625 0.125 -0.6875 0.34375q-0.265625 0.203125 -0.421875 0.5q-0.15625 0.28125 -0.15625 0.609375l-1.71875 0q0 -0.546875 0.265625 -1.078125q0.28125 -0.53125 0.796875 -0.953125q0.515625 -0.421875 1.25 -0.671875q0.75 -0.265625 1.6875 -0.265625q0.84375 0 1.578125 0.203125q0.734375 0.203125 1.265625 0.625q0.53125 0.421875 0.84375 1.0625q0.3125 0.625 0.3125 1.46875l0 4.671875q0 0.5 0.078125 1.0625q0.09375 0.5625 0.265625 0.96875l0 0.15625l-1.796875 0zm-3.03125 -1.3125q0.5 0 0.9375 -0.125q0.4375 -0.125 0.796875 -0.34375q0.359375 -0.21875 0.609375 -0.484375q0.265625 -0.28125 0.421875 -0.578125l0 -2.03125l-1.59375 0q-1.515625 0 -2.359375 0.453125q-0.828125 0.4375 -0.828125 1.390625q0 0.375 0.125 0.703125q0.140625 0.3125 0.390625 0.546875q0.25 0.21875 0.625 0.34375q0.375 0.125 0.875 0.125zm11.695572 -11.15625l0 2.4375l3.828125 0l0 1.3125l-3.828125 0l0 5.46875q0 0.578125 0.140625 0.96875q0.15625 0.375 0.421875 0.609375q0.265625 0.21875 0.59375 0.3125q0.34375 0.09375 0.71875 0.09375q0.28125 0 0.578125 -0.03125q0.296875 -0.046875 0.578125 -0.078125q0.28125 -0.046875 0.53125 -0.09375q0.25 -0.0625 0.40625 -0.09375l0.234375 1.203125q-0.203125 0.140625 -0.515625 0.234375q-0.296875 0.09375 -0.671875 0.15625q-0.359375 0.078125 -0.765625 0.109375q-0.390625 0.046875 -0.796875 0.046875q-0.671875 0 -1.25 -0.1875q-0.578125 -0.1875 -1.015625 -0.59375q-0.421875 -0.421875 -0.671875 -1.078125q-0.234375 -0.65625 -0.234375 -1.578125l0 -5.46875l-2.640625 0l0 -1.3125l2.640625 0l0 -2.4375l1.71875 0zm13.804947 9.8125q0 -0.3125 -0.125 -0.546875q-0.109375 -0.25 -0.40625 -0.453125q-0.28125 -0.21875 -0.765625 -0.390625q-0.46875 -0.171875 -1.171875 -0.296875q-0.859375 -0.1875 -1.578125 -0.4375q-0.703125 -0.25 -1.203125 -0.59375q-0.5 -0.34375 -0.78125 -0.8125q-0.28125 -0.46875 -0.28125 -1.09375q0 -0.609375 0.28125 -1.140625q0.296875 -0.546875 0.8125 -0.9375q0.515625 -0.40625 1.234375 -0.625q0.71875 -0.234375 1.578125 -0.234375q0.9375 0 1.671875 0.25q0.75 0.234375 1.265625 0.65625q0.515625 0.421875 0.796875 1.0q0.296875 0.5625 0.296875 1.21875l-1.71875 0q0 -0.3125 -0.171875 -0.625q-0.171875 -0.3125 -0.46875 -0.546875q-0.296875 -0.25 -0.71875 -0.390625q-0.421875 -0.15625 -0.953125 -0.15625q-0.546875 0 -0.953125 0.125q-0.40625 0.109375 -0.6875 0.3125q-0.265625 0.203125 -0.40625 0.484375q-0.140625 0.265625 -0.140625 0.546875q0 0.296875 0.109375 0.53125q0.109375 0.234375 0.375 0.421875q0.28125 0.1875 0.734375 0.34375q0.46875 0.140625 1.171875 0.28125q0.921875 0.1875 1.65625 0.453125q0.734375 0.25 1.234375 0.609375q0.5 0.359375 0.765625 0.828125q0.265625 0.46875 0.265625 1.09375q0 0.671875 -0.3125 1.21875q-0.296875 0.546875 -0.828125 0.9375q-0.53125 0.390625 -1.296875 0.609375q-0.75 0.203125 -1.640625 0.203125q-1.015625 0 -1.8125 -0.265625q-0.796875 -0.28125 -1.359375 -0.734375q-0.546875 -0.453125 -0.84375 -1.046875q-0.28125 -0.59375 -0.28125 -1.234375l1.71875 0q0.03125 0.53125 0.28125 0.890625q0.25 0.359375 0.609375 0.59375q0.375 0.21875 0.8125 0.3125q0.453125 0.09375 0.875 0.09375q1.09375 0 1.71875 -0.390625q0.640625 -0.40625 0.640625 -1.0625zm22.313019 2.65625q-0.09375 -0.1875 -0.15625 -0.484375q-0.0625 -0.296875 -0.09375 -0.609375q-0.25 0.265625 -0.578125 0.5q-0.3125 0.21875 -0.703125 0.40625q-0.375 0.171875 -0.8125 0.265625q-0.4375 0.109375 -0.9375 0.109375q-0.796875 0 -1.4375 -0.234375q-0.640625 -0.234375 -1.09375 -0.625q-0.453125 -0.390625 -0.703125 -0.9375q-0.234375 -0.546875 -0.234375 -1.171875q0 -0.828125 0.328125 -1.453125q0.328125 -0.625 0.921875 -1.03125q0.609375 -0.40625 1.453125 -0.609375q0.859375 -0.21875 1.90625 -0.21875l1.875 0l0 -0.78125q0 -0.453125 -0.171875 -0.8125q-0.171875 -0.359375 -0.484375 -0.609375q-0.296875 -0.265625 -0.734375 -0.40625q-0.4375 -0.140625 -0.984375 -0.140625q-0.515625 0 -0.921875 0.140625q-0.40625 0.125 -0.6875 0.34375q-0.265625 0.203125 -0.421875 0.5q-0.15625 0.28125 -0.15625 0.609375l-1.71875 0q0 -0.546875 0.265625 -1.078125q0.28125 -0.53125 0.796875 -0.953125q0.515625 -0.421875 1.25 -0.671875q0.75 -0.265625 1.6875 -0.265625q0.84375 0 1.578125 0.203125q0.734375 0.203125 1.265625 0.625q0.53125 0.421875 0.84375 1.0625q0.3125 0.625 0.3125 1.46875l0 4.671875q0 0.5 0.078125 1.0625q0.09375 0.5625 0.265625 0.96875l0 0.15625l-1.796875 0zm-3.03125 -1.3125q0.5 0 0.9375 -0.125q0.4375 -0.125 0.796875 -0.34375q0.359375 -0.21875 0.609375 -0.484375q0.265625 -0.28125 0.421875 -0.578125l0 -2.03125l-1.59375 0q-1.515625 0 -2.359375 0.453125q-0.828125 0.4375 -0.828125 1.390625q0 0.375 0.125 0.703125q0.140625 0.3125 0.390625 0.546875q0.25 0.21875 0.625 0.34375q0.375 0.125 0.875 0.125zm9.179947 -8.71875l0.125 1.484375q0.546875 -0.78125 1.34375 -1.21875q0.796875 -0.453125 1.78125 -0.453125q0.78125 0 1.421875 0.21875q0.65625 0.21875 1.109375 0.703125q0.453125 0.46875 0.6875 1.203125q0.25 0.71875 0.25 1.71875l0 6.375l-1.703125 0l0 -6.34375q0 -0.65625 -0.15625 -1.125q-0.140625 -0.46875 -0.4375 -0.75q-0.296875 -0.28125 -0.71875 -0.40625q-0.421875 -0.140625 -0.96875 -0.140625q-0.859375 0 -1.515625 0.4375q-0.65625 0.421875 -1.046875 1.125l0 7.203125l-1.71875 0l0 -10.03125l1.546875 0zm9.336197 4.921875q0 -1.109375 0.28125 -2.046875q0.28125 -0.953125 0.796875 -1.625q0.53125 -0.6875 1.265625 -1.0625q0.75 -0.375 1.671875 -0.375q0.890625 0 1.5625 0.296875q0.671875 0.296875 1.171875 0.875l0 -5.203125l1.71875 0l0 14.25l-1.578125 0l-0.078125 -1.0625q-0.5 0.609375 -1.203125 0.9375q-0.6875 0.3125 -1.625 0.3125q-0.90625 0 -1.640625 -0.390625q-0.734375 -0.390625 -1.265625 -1.078125q-0.515625 -0.6875 -0.796875 -1.609375q-0.28125 -0.9375 -0.28125 -2.015625l0 -0.203125zm1.703125 0.203125q0 0.734375 0.15625 1.390625q0.171875 0.65625 0.5 1.15625q0.328125 0.5 0.828125 0.796875q0.515625 0.296875 1.234375 0.296875q0.4375 0 0.78125 -0.09375q0.359375 -0.109375 0.640625 -0.296875q0.296875 -0.203125 0.515625 -0.46875q0.21875 -0.265625 0.390625 -0.578125l0 -4.65625q-0.34375 -0.625 -0.90625 -1.015625q-0.5625 -0.390625 -1.40625 -0.390625q-0.71875 0 -1.234375 0.296875q-0.515625 0.296875 -0.84375 0.8125q-0.328125 0.5 -0.5 1.171875q-0.15625 0.65625 -0.15625 1.375l0 0.203125z" fill-rule="nonzero"></path><path fill="#000000" d="m146.05284 245.23828q0 -0.609375 -0.28125 -1.03125q-0.28125 -0.4375 -0.734375 -0.71875q-0.4375 -0.296875 -0.984375 -0.484375q-0.53125 -0.203125 -1.015625 -0.359375q-0.71875 -0.234375 -1.453125 -0.5625q-0.734375 -0.328125 -1.34375 -0.796875q-0.609375 -0.46875 -1.0 -1.109375q-0.375 -0.65625 -0.375 -1.53125q0 -0.859375 0.375 -1.546875q0.390625 -0.6875 1.0 -1.15625q0.625 -0.484375 1.40625 -0.71875q0.796875 -0.25 1.59375 -0.25q0.890625 0 1.703125 0.296875q0.8125 0.28125 1.4375 0.8125q0.640625 0.53125 1.015625 1.28125q0.390625 0.75 0.40625 1.671875l-1.765625 0q-0.078125 -0.578125 -0.296875 -1.046875q-0.203125 -0.484375 -0.5625 -0.828125q-0.34375 -0.34375 -0.828125 -0.53125q-0.484375 -0.203125 -1.109375 -0.203125q-0.484375 0 -0.953125 0.140625q-0.46875 0.140625 -0.84375 0.421875q-0.359375 0.28125 -0.578125 0.6875q-0.21875 0.40625 -0.21875 0.953125q0.015625 0.578125 0.296875 0.984375q0.296875 0.40625 0.734375 0.6875q0.4375 0.265625 0.953125 0.453125q0.515625 0.1875 0.96875 0.328125q0.5 0.15625 1.0 0.359375q0.515625 0.203125 0.984375 0.46875q0.484375 0.25 0.890625 0.578125q0.40625 0.3125 0.703125 0.734375q0.3125 0.40625 0.484375 0.90625q0.171875 0.5 0.171875 1.09375q0 0.90625 -0.40625 1.59375q-0.390625 0.671875 -1.03125 1.125q-0.640625 0.453125 -1.453125 0.6875q-0.8125 0.21875 -1.609375 0.21875q-0.90625 0 -1.765625 -0.28125q-0.859375 -0.28125 -1.546875 -0.796875q-0.6875 -0.53125 -1.109375 -1.28125q-0.421875 -0.765625 -0.453125 -1.71875l1.75 0q0.09375 0.625 0.34375 1.109375q0.265625 0.484375 0.671875 0.828125q0.40625 0.34375 0.9375 0.515625q0.53125 0.171875 1.171875 0.171875q0.5 0 0.984375 -0.125q0.484375 -0.125 0.859375 -0.390625q0.390625 -0.265625 0.625 -0.671875q0.25 -0.40625 0.25 -0.96875zm8.398697 2.21875q0.46875 0 0.90625 -0.140625q0.4375 -0.15625 0.78125 -0.421875q0.34375 -0.265625 0.546875 -0.625q0.21875 -0.359375 0.21875 -0.765625l1.625 0q0 0.65625 -0.34375 1.265625q-0.34375 0.609375 -0.90625 1.078125q-0.5625 0.453125 -1.296875 0.734375q-0.734375 0.265625 -1.53125 0.265625q-1.140625 0 -2.0 -0.40625q-0.84375 -0.40625 -1.421875 -1.09375q-0.5625 -0.703125 -0.859375 -1.609375q-0.28125 -0.90625 -0.28125 -1.90625l0 -0.390625q0 -0.984375 0.28125 -1.890625q0.296875 -0.921875 0.859375 -1.609375q0.578125 -0.6875 1.421875 -1.09375q0.859375 -0.40625 2.0 -0.40625q0.890625 0 1.640625 0.28125q0.75 0.28125 1.28125 0.765625q0.546875 0.484375 0.84375 1.15625q0.3125 0.671875 0.3125 1.421875l-1.625 0q0 -0.453125 -0.203125 -0.84375q-0.1875 -0.40625 -0.515625 -0.71875q-0.3125 -0.3125 -0.765625 -0.484375q-0.453125 -0.171875 -0.96875 -0.171875q-0.796875 0 -1.34375 0.328125q-0.53125 0.3125 -0.875 0.828125q-0.328125 0.515625 -0.484375 1.15625q-0.140625 0.640625 -0.140625 1.28125l0 0.390625q0 0.65625 0.140625 1.3125q0.15625 0.640625 0.484375 1.15625q0.328125 0.515625 0.859375 0.84375q0.546875 0.3125 1.359375 0.3125zm11.351822 1.390625q-1.0625 0 -1.953125 -0.359375q-0.875 -0.359375 -1.515625 -1.015625q-0.625 -0.65625 -0.984375 -1.546875q-0.34375 -0.890625 -0.34375 -1.9375l0 -0.390625q0 -1.203125 0.390625 -2.15625q0.390625 -0.96875 1.03125 -1.625q0.65625 -0.671875 1.46875 -1.015625q0.828125 -0.359375 1.6875 -0.359375q1.078125 0 1.890625 0.375q0.8125 0.375 1.34375 1.046875q0.546875 0.65625 0.8125 1.5625q0.265625 0.890625 0.265625 1.9375l0 0.765625l-7.171875 0q0.03125 0.6875 0.265625 1.296875q0.234375 0.59375 0.640625 1.046875q0.421875 0.453125 1.0 0.71875q0.578125 0.25 1.265625 0.25q0.921875 0 1.625 -0.359375q0.71875 -0.375 1.203125 -0.984375l1.046875 0.8125q-0.25 0.375 -0.625 0.734375q-0.375 0.34375 -0.875 0.609375q-0.484375 0.265625 -1.109375 0.421875q-0.625 0.171875 -1.359375 0.171875zm-0.21875 -9.0q-0.515625 0 -0.984375 0.1875q-0.46875 0.1875 -0.84375 0.5625q-0.359375 0.359375 -0.625 0.890625q-0.25 0.53125 -0.34375 1.234375l5.390625 0l0 -0.125q-0.03125 -0.5 -0.1875 -0.984375q-0.15625 -0.5 -0.484375 -0.890625q-0.3125 -0.390625 -0.796875 -0.625q-0.46875 -0.25 -1.125 -0.25zm8.523697 -1.21875l0.125 1.484375q0.546875 -0.78125 1.34375 -1.21875q0.796875 -0.453125 1.78125 -0.453125q0.78125 0 1.421875 0.21875q0.65625 0.21875 1.109375 0.703125q0.453125 0.46875 0.6875 1.203125q0.25 0.71875 0.25 1.71875l0 6.375l-1.703125 0l0 -6.34375q0 -0.65625 -0.15625 -1.125q-0.140625 -0.46875 -0.4375 -0.75q-0.296875 -0.28125 -0.71875 -0.40625q-0.421875 -0.140625 -0.96875 -0.140625q-0.859375 0 -1.515625 0.4375q-0.65625 0.421875 -1.046875 1.125l0 7.203125l-1.71875 0l0 -10.03125l1.546875 0zm16.242447 10.03125q-0.09375 -0.1875 -0.15625 -0.484375q-0.0625 -0.296875 -0.09375 -0.609375q-0.25 0.265625 -0.578125 0.5q-0.3125 0.21875 -0.703125 0.40625q-0.375 0.171875 -0.8125 0.265625q-0.4375 0.109375 -0.9375 0.109375q-0.796875 0 -1.4375 -0.234375q-0.640625 -0.234375 -1.09375 -0.625q-0.453125 -0.390625 -0.703125 -0.9375q-0.234375 -0.546875 -0.234375 -1.171875q0 -0.828125 0.328125 -1.453125q0.328125 -0.625 0.921875 -1.03125q0.609375 -0.40625 1.453125 -0.609375q0.859375 -0.21875 1.90625 -0.21875l1.875 0l0 -0.78125q0 -0.453125 -0.171875 -0.8125q-0.171875 -0.359375 -0.484375 -0.609375q-0.296875 -0.265625 -0.734375 -0.40625q-0.4375 -0.140625 -0.984375 -0.140625q-0.515625 0 -0.921875 0.140625q-0.40625 0.125 -0.6875 0.34375q-0.265625 0.203125 -0.421875 0.5q-0.15625 0.28125 -0.15625 0.609375l-1.71875 0q0 -0.546875 0.265625 -1.078125q0.28125 -0.53125 0.796875 -0.953125q0.515625 -0.421875 1.25 -0.671875q0.75 -0.265625 1.6875 -0.265625q0.84375 0 1.578125 0.203125q0.734375 0.203125 1.265625 0.625q0.53125 0.421875 0.84375 1.0625q0.3125 0.625 0.3125 1.46875l0 4.671875q0 0.5 0.078125 1.0625q0.09375 0.5625 0.265625 0.96875l0 0.15625l-1.796875 0zm-3.03125 -1.3125q0.5 0 0.9375 -0.125q0.4375 -0.125 0.796875 -0.34375q0.359375 -0.21875 0.609375 -0.484375q0.265625 -0.28125 0.421875 -0.578125l0 -2.03125l-1.59375 0q-1.515625 0 -2.359375 0.453125q-0.828125 0.4375 -0.828125 1.390625q0 0.375 0.125 0.703125q0.140625 0.3125 0.390625 0.546875q0.25 0.21875 0.625 0.34375q0.375 0.125 0.875 0.125zm14.211197 -8.90625q0.25 0 0.5 0.015625q0.265625 0 0.5 0.046875q0.234375 0.03125 0.4375 0.078125q0.203125 0.046875 0.328125 0.09375l-0.234375 1.6875q-0.5 -0.125 -0.953125 -0.171875q-0.4375 -0.046875 -0.9375 -0.046875q-1.203125 0 -1.953125 0.546875q-0.75 0.546875 -1.09375 1.53125l0 6.4375l-1.734375 0l0 -10.03125l1.640625 0l0.078125 1.59375q0.609375 -0.828125 1.46875 -1.296875q0.859375 -0.484375 1.953125 -0.484375zm4.898697 0.1875l5.125 0l0 8.546875l3.265625 0l0 1.484375l-8.390625 0l0 -1.484375l3.40625 0l0 -7.0625l-3.40625 0l0 -1.484375zm3.1875 -2.640625q0 -0.421875 0.25 -0.71875q0.25 -0.296875 0.78125 -0.296875q0.5 0 0.765625 0.296875q0.265625 0.296875 0.265625 0.71875q0 0.421875 -0.265625 0.703125q-0.265625 0.265625 -0.765625 0.265625q-0.53125 0 -0.78125 -0.265625q-0.25 -0.28125 -0.25 -0.703125zm7.242447 7.5625q0 -1.09375 0.3125 -2.015625q0.328125 -0.9375 0.90625 -1.625q0.59375 -0.6875 1.4375 -1.078125q0.84375 -0.390625 1.90625 -0.390625q1.0625 0 1.90625 0.390625q0.859375 0.390625 1.4375 1.078125q0.59375 0.6875 0.90625 1.625q0.328125 0.921875 0.328125 2.015625l0 0.203125q0 1.078125 -0.328125 2.015625q-0.3125 0.921875 -0.90625 1.609375q-0.578125 0.6875 -1.421875 1.078125q-0.84375 0.390625 -1.90625 0.390625q-1.0625 0 -1.921875 -0.390625q-0.84375 -0.390625 -1.4375 -1.078125q-0.578125 -0.6875 -0.90625 -1.609375q-0.3125 -0.9375 -0.3125 -2.015625l0 -0.203125zm1.71875 0.203125q0 0.734375 0.171875 1.40625q0.1875 0.671875 0.546875 1.1875q0.359375 0.515625 0.890625 0.8125q0.53125 0.296875 1.25 0.296875q0.703125 0 1.234375 -0.296875q0.546875 -0.296875 0.890625 -0.8125q0.359375 -0.515625 0.53125 -1.1875q0.1875 -0.671875 0.1875 -1.40625l0 -0.203125q0 -0.734375 -0.1875 -1.40625q-0.171875 -0.671875 -0.53125 -1.171875q-0.359375 -0.515625 -0.890625 -0.8125q-0.53125 -0.3125 -1.25 -0.3125q-0.71875 0 -1.25 0.3125q-0.515625 0.296875 -0.875 0.8125q-0.359375 0.5 -0.546875 1.171875q-0.171875 0.671875 -0.171875 1.40625l0 0.203125zm16.633072 2.25q0 -0.3125 -0.125 -0.546875q-0.109375 -0.25 -0.40625 -0.453125q-0.28125 -0.21875 -0.765625 -0.390625q-0.46875 -0.171875 -1.171875 -0.296875q-0.859375 -0.1875 -1.578125 -0.4375q-0.703125 -0.25 -1.203125 -0.59375q-0.5 -0.34375 -0.78125 -0.8125q-0.28125 -0.46875 -0.28125 -1.09375q0 -0.609375 0.28125 -1.140625q0.296875 -0.546875 0.8125 -0.9375q0.515625 -0.40625 1.234375 -0.625q0.71875 -0.234375 1.578125 -0.234375q0.9375 0 1.671875 0.25q0.75 0.234375 1.265625 0.65625q0.515625 0.421875 0.796875 1.0q0.296875 0.5625 0.296875 1.21875l-1.71875 0q0 -0.3125 -0.171875 -0.625q-0.171875 -0.3125 -0.46875 -0.546875q-0.296875 -0.25 -0.71875 -0.390625q-0.421875 -0.15625 -0.953125 -0.15625q-0.546875 0 -0.953125 0.125q-0.40625 0.109375 -0.6875 0.3125q-0.265625 0.203125 -0.40625 0.484375q-0.140625 0.265625 -0.140625 0.546875q0 0.296875 0.109375 0.53125q0.109375 0.234375 0.375 0.421875q0.28125 0.1875 0.734375 0.34375q0.46875 0.140625 1.171875 0.28125q0.921875 0.1875 1.65625 0.453125q0.734375 0.25 1.234375 0.609375q0.5 0.359375 0.765625 0.828125q0.265625 0.46875 0.265625 1.09375q0 0.671875 -0.3125 1.21875q-0.296875 0.546875 -0.828125 0.9375q-0.53125 0.390625 -1.296875 0.609375q-0.75 0.203125 -1.640625 0.203125q-1.015625 0 -1.8125 -0.265625q-0.796875 -0.28125 -1.359375 -0.734375q-0.546875 -0.453125 -0.84375 -1.046875q-0.28125 -0.59375 -0.28125 -1.234375l1.71875 0q0.03125 0.53125 0.28125 0.890625q0.25 0.359375 0.609375 0.59375q0.375 0.21875 0.8125 0.3125q0.453125 0.09375 0.875 0.09375q1.09375 0 1.71875 -0.390625q0.640625 -0.40625 0.640625 -1.0625z" fill-rule="nonzero"></path><path fill="#000000" fill-opacity="0.0" d="m96.343834 504.34384l0 0c0 -9.587433 7.772148 -17.359589 17.359581 -17.359589l148.084 0c4.6040344 0 9.019501 1.828949 12.275055 5.084503c3.2555542 3.2555542 5.084503 7.6710205 5.084503 12.275085l0 69.438324c0 9.587402 -7.7721252 17.359558 -17.359558 17.359558l-148.084 0c-9.587433 0 -17.359581 -7.772156 -17.359581 -17.359558z" fill-rule="evenodd"></path><path stroke="#000000" stroke-width="3.0" stroke-linejoin="round" stroke-linecap="butt" d="m96.343834 504.34384l0 0c0 -9.587433 7.772148 -17.359589 17.359581 -17.359589l148.084 0c4.6040344 0 9.019501 1.828949 12.275055 5.084503c3.2555542 3.2555542 5.084503 7.6710205 5.084503 12.275085l0 69.438324c0 9.587402 -7.7721252 17.359558 -17.359558 17.359558l-148.084 0c-9.587433 0 -17.359581 -7.772156 -17.359581 -17.359558z" fill-rule="evenodd"></path><path fill="#000000" d="m116.41169 523.983l0 -13.5155945l3.125 0q1.40625 0.03125 2.515625 0.484375q1.109375 0.453125 1.875 1.2812195q0.765625 0.828125 1.171875 1.96875q0.40625 1.140625 0.421875 2.53125l0 1.0q-0.015625 1.390625 -0.421875 2.546875q-0.40625 1.140625 -1.171875 1.96875q-0.765625 0.8125 -1.875 1.265625q-1.109375 0.453125 -2.515625 0.46875l-3.125 0zm1.75 -12.0937195l0 10.6874695l1.375 0q1.09375 0 1.890625 -0.375q0.796875 -0.375 1.3125 -1.015625q0.53125 -0.65625 0.78125 -1.53125q0.265625 -0.890625 0.28125 -1.921875l0 -1.015625q-0.015625 -1.03125 -0.28125 -1.90625q-0.25 -0.875 -0.78125 -1.515625q-0.515625 -0.65625 -1.3125 -1.015625q-0.796875 -0.37496948 -1.890625 -0.39059448l-1.375 0zm14.054955 12.2812195q-1.0625 0 -1.953125 -0.359375q-0.875 -0.359375 -1.515625 -1.015625q-0.625 -0.65625 -0.9843826 -1.546875q-0.34375 -0.890625 -0.34375 -1.9375l0 -0.390625q0 -1.203125 0.390625 -2.15625q0.39063263 -0.96875 1.0312576 -1.625q0.65625 -0.671875 1.46875 -1.015625q0.828125 -0.359375 1.6875 -0.359375q1.078125 0 1.890625 0.375q0.8125 0.375 1.34375 1.046875q0.546875 0.65625 0.8125 1.5625q0.265625 0.890625 0.265625 1.9375l0 0.765625l-7.171875 0q0.03125 0.6875 0.265625 1.296875q0.234375 0.59375 0.640625 1.046875q0.421875 0.453125 1.0 0.71875q0.578125 0.25 1.265625 0.25q0.921875 0 1.625 -0.359375q0.71875 -0.375 1.203125 -0.984375l1.046875 0.8125q-0.25 0.375 -0.625 0.734375q-0.375 0.34375 -0.875 0.609375q-0.484375 0.265625 -1.109375 0.421875q-0.625 0.171875 -1.359375 0.171875zm-0.21875 -9.0q-0.515625 0 -0.984375 0.1875q-0.46875 0.1875 -0.84375 0.5625q-0.359375 0.359375 -0.625 0.890625q-0.25 0.53125 -0.34375 1.234375l5.390625 0l0 -0.125q-0.03125 -0.5 -0.1875 -0.984375q-0.15625 -0.5 -0.484375 -0.890625q-0.3125 -0.390625 -0.796875 -0.625q-0.46875 -0.25 -1.125 -0.25zm15.445572 3.90625q0 1.078125 -0.265625 2.015625q-0.25 0.921875 -0.75 1.609375q-0.5 0.6875 -1.234375 1.078125q-0.734375 0.390625 -1.6875 0.390625q-0.921875 0 -1.625 -0.296875q-0.6875 -0.296875 -1.1875 -0.859375l0 4.828125l-1.71875 0l0 -13.890625l1.5625 0l0.078125 1.09375q0.5 -0.625 1.203125 -0.953125q0.71875 -0.328125 1.65625 -0.328125q0.96875 0 1.703125 0.375q0.75 0.375 1.25 1.0625q0.5 0.671875 0.75 1.625q0.265625 0.9375 0.265625 2.046875l0 0.203125zm-1.703125 -0.203125q0 -0.71875 -0.171875 -1.375q-0.15625 -0.671875 -0.5 -1.171875q-0.34375 -0.515625 -0.859375 -0.8125q-0.515625 -0.296875 -1.234375 -0.296875q-0.828125 0 -1.390625 0.390625q-0.5625 0.375 -0.890625 0.984375l0 4.828125q0.328125 0.59375 0.875 0.96875q0.5625 0.375 1.421875 0.375q0.71875 0 1.234375 -0.296875q0.515625 -0.296875 0.84375 -0.8125q0.34375 -0.515625 0.5 -1.171875q0.171875 -0.671875 0.171875 -1.40625l0 -0.203125zm4.711197 -9.1405945l5.125 0l0 12.7655945l3.265625 0l0 1.484375l-8.390625 0l0 -1.484375l3.40625 0l0 -11.2655945l-3.40625 0l0 -1.5zm10.429947 9.1405945q0 -1.09375 0.3125 -2.015625q0.328125 -0.9375 0.90625 -1.625q0.59375 -0.6875 1.4375 -1.078125q0.84375 -0.390625 1.90625 -0.390625q1.0625 0 1.90625 0.390625q0.859375 0.390625 1.4375 1.078125q0.59375 0.6875 0.90625 1.625q0.328125 0.921875 0.328125 2.015625l0 0.203125q0 1.078125 -0.328125 2.015625q-0.3125 0.921875 -0.90625 1.609375q-0.578125 0.6875 -1.421875 1.078125q-0.84375 0.390625 -1.90625 0.390625q-1.0625 0 -1.921875 -0.390625q-0.84375 -0.390625 -1.4375 -1.078125q-0.578125 -0.6875 -0.90625 -1.609375q-0.3125 -0.9375 -0.3125 -2.015625l0 -0.203125zm1.71875 0.203125q0 0.734375 0.171875 1.40625q0.1875 0.671875 0.546875 1.1875q0.359375 0.515625 0.890625 0.8125q0.53125 0.296875 1.25 0.296875q0.703125 0 1.234375 -0.296875q0.546875 -0.296875 0.890625 -0.8125q0.359375 -0.515625 0.53125 -1.1875q0.1875 -0.671875 0.1875 -1.40625l0 -0.203125q0 -0.734375 -0.1875 -1.40625q-0.171875 -0.671875 -0.53125 -1.171875q-0.359375 -0.515625 -0.890625 -0.8125q-0.53125 -0.3125 -1.25 -0.3125q-0.71875 0 -1.25 0.3125q-0.515625 0.296875 -0.875 0.8125q-0.359375 0.5 -0.546875 1.171875q-0.171875 0.671875 -0.171875 1.40625l0 0.203125zm13.664322 1.34375l0.4375 1.21875l3.0625 -7.6875l1.921875 0l-5.09375 11.578125q-0.171875 0.390625 -0.453125 0.828125q-0.265625 0.4375 -0.65625 0.796875q-0.390625 0.375 -0.921875 0.625q-0.515625 0.25 -1.1875 0.25q-0.125 0 -0.28125 -0.015625q-0.140625 0 -0.296875 -0.03125q-0.140625 -0.015625 -0.265625 -0.046875q-0.125 -0.03125 -0.21875 -0.046875l0.28125 -1.40625q0.0625 0 0.171875 0.015625q0.125 0.015625 0.234375 0.015625q0.125 0.015625 0.234375 0.015625q0.109375 0 0.171875 0q0.359375 0 0.640625 -0.203125q0.296875 -0.1875 0.515625 -0.453125q0.234375 -0.265625 0.390625 -0.5625q0.171875 -0.28125 0.265625 -0.46875l0.6875 -1.328125l-4.328125 -9.5625l1.921875 0l2.765625 6.46875zm11.851822 3.15625q0 0.4375 -0.109375 0.921875q-0.109375 0.484375 -0.328125 0.953125q-0.203125 0.46875 -0.5 0.890625q-0.296875 0.421875 -0.6875 0.765625l-1.0625 -0.59375q0.453125 -0.640625 0.625 -1.375q0.1875 -0.734375 0.1875 -1.53125l0 -1.65625l1.875 0l0 1.625zm22.094269 -12.0624695l0 2.4374695l3.828125 0l0 1.3125l-3.828125 0l0 5.46875q0 0.578125 0.140625 0.96875q0.15625 0.375 0.421875 0.609375q0.265625 0.21875 0.59375 0.3125q0.34375 0.09375 0.71875 0.09375q0.28125 0 0.578125 -0.03125q0.296875 -0.046875 0.578125 -0.078125q0.28125 -0.046875 0.53125 -0.09375q0.25 -0.0625 0.40625 -0.09375l0.234375 1.203125q-0.203125 0.140625 -0.515625 0.234375q-0.296875 0.09375 -0.671875 0.15625q-0.359375 0.078125 -0.765625 0.109375q-0.390625 0.046875 -0.796875 0.046875q-0.671875 0 -1.25 -0.1875q-0.578125 -0.1875 -1.015625 -0.59375q-0.421875 -0.421875 -0.671875 -1.078125q-0.234375 -0.65625 -0.234375 -1.578125l0 -5.46875l-2.640625 0l0 -1.3125l2.640625 0l0 -2.4374695l1.71875 0zm13.711197 2.2499695q0.25 0 0.5 0.015625q0.265625 0 0.5 0.046875q0.234375 0.03125 0.4375 0.078125q0.203125 0.046875 0.328125 0.09375l-0.234375 1.6875q-0.5 -0.125 -0.953125 -0.171875q-0.4375 -0.046875 -0.9375 -0.046875q-1.203125 0 -1.953125 0.546875q-0.75 0.546875 -1.09375 1.53125l0 6.4375l-1.734375 0l0 -10.03125l1.640625 0l0.078125 1.59375q0.609375 -0.828125 1.46875 -1.296875q0.859375 -0.484375 1.953125 -0.484375zm11.211197 10.21875q-0.09375 -0.1875 -0.15625 -0.484375q-0.0625 -0.296875 -0.09375 -0.609375q-0.25 0.265625 -0.578125 0.5q-0.3125 0.21875 -0.703125 0.40625q-0.375 0.171875 -0.8125 0.265625q-0.4375 0.109375 -0.9375 0.109375q-0.796875 0 -1.4375 -0.234375q-0.640625 -0.234375 -1.09375 -0.625q-0.453125 -0.390625 -0.703125 -0.9375q-0.234375 -0.546875 -0.234375 -1.171875q0 -0.828125 0.328125 -1.453125q0.328125 -0.625 0.921875 -1.03125q0.609375 -0.40625 1.453125 -0.609375q0.859375 -0.21875 1.90625 -0.21875l1.875 0l0 -0.78125q0 -0.453125 -0.171875 -0.8125q-0.171875 -0.359375 -0.484375 -0.609375q-0.296875 -0.265625 -0.734375 -0.40625q-0.4375 -0.140625 -0.984375 -0.140625q-0.515625 0 -0.921875 0.140625q-0.40625 0.125 -0.6875 0.34375q-0.265625 0.203125 -0.421875 0.5q-0.15625 0.28125 -0.15625 0.609375l-1.71875 0q0 -0.546875 0.265625 -1.078125q0.28125 -0.53125 0.796875 -0.953125q0.515625 -0.421875 1.25 -0.671875q0.75 -0.265625 1.6875 -0.265625q0.84375 0 1.578125 0.203125q0.734375 0.203125 1.265625 0.625q0.53125 0.421875 0.84375 1.0625q0.3125 0.625 0.3125 1.46875l0 4.671875q0 0.5 0.078125 1.0625q0.09375 0.5625 0.265625 0.96875l0 0.15625l-1.796875 0zm-3.03125 -1.3125q0.5 0 0.9375 -0.125q0.4375 -0.125 0.796875 -0.34375q0.359375 -0.21875 0.609375 -0.484375q0.265625 -0.28125 0.421875 -0.578125l0 -2.03125l-1.59375 0q-1.515625 0 -2.359375 0.453125q-0.828125 0.4375 -0.828125 1.390625q0 0.375 0.125 0.703125q0.140625 0.3125 0.390625 0.546875q0.25 0.21875 0.625 0.34375q0.375 0.125 0.875 0.125zm11.914322 0.109375q0.46875 0 0.90625 -0.140625q0.4375 -0.15625 0.78125 -0.421875q0.34375 -0.265625 0.546875 -0.625q0.21875 -0.359375 0.21875 -0.765625l1.625 0q0 0.65625 -0.34375 1.265625q-0.34375 0.609375 -0.90625 1.078125q-0.5625 0.453125 -1.296875 0.734375q-0.734375 0.265625 -1.53125 0.265625q-1.140625 0 -2.0 -0.40625q-0.84375 -0.40625 -1.421875 -1.09375q-0.5625 -0.703125 -0.859375 -1.609375q-0.28125 -0.90625 -0.28125 -1.90625l0 -0.390625q0 -0.984375 0.28125 -1.890625q0.296875 -0.921875 0.859375 -1.609375q0.578125 -0.6875 1.421875 -1.09375q0.859375 -0.40625 2.0 -0.40625q0.890625 0 1.640625 0.28125q0.75 0.28125 1.28125 0.765625q0.546875 0.484375 0.84375 1.15625q0.3125 0.671875 0.3125 1.421875l-1.625 0q0 -0.453125 -0.203125 -0.84375q-0.1875 -0.40625 -0.515625 -0.71875q-0.3125 -0.3125 -0.765625 -0.484375q-0.453125 -0.171875 -0.96875 -0.171875q-0.796875 0 -1.34375 0.328125q-0.53125 0.3125 -0.875 0.828125q-0.328125 0.515625 -0.484375 1.15625q-0.140625 0.640625 -0.140625 1.28125l0 0.390625q0 0.65625 0.140625 1.3125q0.15625 0.640625 0.484375 1.15625q0.328125 0.515625 0.859375 0.84375q0.546875 0.3125 1.359375 0.3125zm9.929947 -3.484375l-1.265625 1.21875l0 3.46875l-1.71875 0l0 -14.2499695l1.71875 0l0 8.7187195l1.125 -1.203125l3.2968597 -3.296875l2.078125 0l-4.0624847 4.171875l4.6874847 5.859375l-2.1875 0l-3.6718597 -4.6875z" fill-rule="nonzero"></path><path fill="#000000" d="m139.97067 545.983q-0.09375 -0.1875 -0.15625 -0.484375q-0.0625 -0.296875 -0.09375 -0.609375q-0.25 0.265625 -0.578125 0.5q-0.3125 0.21875 -0.703125 0.40625q-0.375 0.171875 -0.8125 0.265625q-0.4375 0.109375 -0.9375 0.109375q-0.796875 0 -1.4375 -0.234375q-0.640625 -0.234375 -1.09375 -0.625q-0.453125 -0.390625 -0.703125 -0.9375q-0.234375 -0.546875 -0.234375 -1.171875q0 -0.828125 0.328125 -1.453125q0.328125 -0.625 0.921875 -1.03125q0.609375 -0.40625 1.453125 -0.609375q0.859375 -0.21875 1.90625 -0.21875l1.875 0l0 -0.78125q0 -0.453125 -0.171875 -0.8125q-0.171875 -0.359375 -0.484375 -0.609375q-0.296875 -0.265625 -0.734375 -0.40625q-0.4375 -0.140625 -0.984375 -0.140625q-0.515625 0 -0.921875 0.140625q-0.40625 0.125 -0.6875 0.34375q-0.265625 0.203125 -0.421875 0.5q-0.15625 0.28125 -0.15625 0.609375l-1.71875 0q0 -0.546875 0.265625 -1.078125q0.28125 -0.53125 0.796875 -0.953125q0.515625 -0.421875 1.25 -0.671875q0.75 -0.265625 1.6875 -0.265625q0.84375 0 1.578125 0.203125q0.734375 0.203125 1.265625 0.625q0.53125 0.421875 0.84375 1.0625q0.3125 0.625 0.3125 1.46875l0 4.671875q0 0.5 0.078125 1.0625q0.09375 0.5625 0.265625 0.96875l0 0.15625l-1.796875 0zm-3.03125 -1.3125q0.5 0 0.9375 -0.125q0.4375 -0.125 0.796875 -0.34375q0.359375 -0.21875 0.609375 -0.484375q0.265625 -0.28125 0.421875 -0.578125l0 -2.03125l-1.59375 0q-1.515625 0 -2.359375 0.453125q-0.828125 0.4375 -0.828125 1.390625q0 0.375 0.125 0.703125q0.140625 0.3125 0.390625 0.546875q0.25 0.21875 0.625 0.34375q0.375 0.125 0.875 0.125zm9.179947 -8.71875l0.125 1.484375q0.546875 -0.78125 1.34375 -1.21875q0.796875 -0.453125 1.78125 -0.453125q0.78125 0 1.421875 0.21875q0.65625 0.21875 1.109375 0.703125q0.453125 0.46875 0.6875 1.203125q0.25 0.71875 0.25 1.71875l0 6.375l-1.703125 0l0 -6.34375q0 -0.65625 -0.15625 -1.125q-0.140625 -0.46875 -0.4375 -0.75q-0.296875 -0.28125 -0.71875 -0.40625q-0.421875 -0.140625 -0.96875 -0.140625q-0.859375 0 -1.515625 0.4375q-0.65625 0.421875 -1.046875 1.125l0 7.203125l-1.71875 0l0 -10.03125l1.546875 0zm9.336197 4.921875q0 -1.109375 0.28125 -2.046875q0.28125 -0.953125 0.796875 -1.625q0.53125 -0.6875 1.265625 -1.0625q0.75 -0.375 1.671875 -0.375q0.890625 0 1.5625 0.296875q0.671875 0.296875 1.171875 0.875l0 -5.203125l1.71875 0l0 14.25l-1.578125 0l-0.078125 -1.0625q-0.5 0.609375 -1.203125 0.9375q-0.6875 0.3125 -1.625 0.3125q-0.90625 0 -1.640625 -0.390625q-0.734375 -0.390625 -1.265625 -1.078125q-0.515625 -0.6875 -0.796875 -1.609375q-0.28125 -0.9375 -0.28125 -2.015625l0 -0.203125zm1.703125 0.203125q0 0.734375 0.15625 1.390625q0.171875 0.65625 0.5 1.15625q0.328125 0.5 0.828125 0.796875q0.515625 0.296875 1.234375 0.296875q0.4375 0 0.78125 -0.09375q0.359375 -0.109375 0.640625 -0.296875q0.296875 -0.203125 0.515625 -0.46875q0.21875 -0.265625 0.390625 -0.578125l0 -4.65625q-0.34375 -0.625 -0.90625 -1.015625q-0.5625 -0.390625 -1.40625 -0.390625q-0.71875 0 -1.234375 0.296875q-0.515625 0.296875 -0.84375 0.8125q-0.328125 0.5 -0.5 1.171875q-0.15625 0.65625 -0.15625 1.375l0 0.203125zm27.516144 3.53125q-0.5 0.734375 -1.25 1.15625q-0.75 0.40625 -1.734375 0.40625q-0.796875 0 -1.4375 -0.25q-0.625 -0.25 -1.09375 -0.765625q-0.453125 -0.515625 -0.703125 -1.3125q-0.234375 -0.8125 -0.234375 -1.9375l0 -5.953125l1.71875 0l0 5.984375q0 0.8125 0.125 1.359375q0.125 0.53125 0.390625 0.859375q0.265625 0.3125 0.640625 0.4375q0.375 0.125 0.859375 0.125q1.046875 0 1.6875 -0.421875q0.65625 -0.421875 0.96875 -1.15625l0 -7.1875l1.71875 0l0 10.03125l-1.546875 0l-0.109375 -1.375zm13.148697 -3.53125q0 1.078125 -0.265625 2.015625q-0.25 0.921875 -0.75 1.609375q-0.5 0.6875 -1.234375 1.078125q-0.734375 0.390625 -1.6875 0.390625q-0.921875 0 -1.625 -0.296875q-0.6875 -0.296875 -1.1875 -0.859375l0 4.828125l-1.71875 0l0 -13.890625l1.5625 0l0.078125 1.09375q0.5 -0.625 1.203125 -0.953125q0.71875 -0.328125 1.65625 -0.328125q0.96875 0 1.703125 0.375q0.75 0.375 1.25 1.0625q0.5 0.671875 0.75 1.625q0.265625 0.9375 0.265625 2.046875l0 0.203125zm-1.703125 -0.203125q0 -0.71875 -0.171875 -1.375q-0.15625 -0.671875 -0.5 -1.171875q-0.34375 -0.515625 -0.859375 -0.8125q-0.515625 -0.296875 -1.234375 -0.296875q-0.828125 0 -1.390625 0.390625q-0.5625 0.375 -0.890625 0.984375l0 4.828125q0.328125 0.59375 0.875 0.96875q0.5625 0.375 1.421875 0.375q0.71875 0 1.234375 -0.296875q0.515625 -0.296875 0.84375 -0.8125q0.34375 -0.515625 0.5 -1.171875q0.171875 -0.671875 0.171875 -1.40625l0 -0.203125zm4.117447 0q0 -1.109375 0.28125 -2.046875q0.28125 -0.953125 0.796875 -1.625q0.53125 -0.6875 1.265625 -1.0625q0.75 -0.375 1.671875 -0.375q0.890625 0 1.5625 0.296875q0.671875 0.296875 1.171875 0.875l0 -5.203125l1.71875 0l0 14.25l-1.578125 0l-0.078125 -1.0625q-0.5 0.609375 -1.203125 0.9375q-0.6875 0.3125 -1.625 0.3125q-0.90625 0 -1.640625 -0.390625q-0.734375 -0.390625 -1.265625 -1.078125q-0.515625 -0.6875 -0.796875 -1.609375q-0.28125 -0.9375 -0.28125 -2.015625l0 -0.203125zm1.703125 0.203125q0 0.734375 0.15625 1.390625q0.171875 0.65625 0.5 1.15625q0.328125 0.5 0.828125 0.796875q0.515625 0.296875 1.234375 0.296875q0.4375 0 0.78125 -0.09375q0.359375 -0.109375 0.640625 -0.296875q0.296875 -0.203125 0.515625 -0.46875q0.21875 -0.265625 0.390625 -0.578125l0 -4.65625q-0.34375 -0.625 -0.90625 -1.015625q-0.5625 -0.390625 -1.40625 -0.390625q-0.71875 0 -1.234375 0.296875q-0.515625 0.296875 -0.84375 0.8125q-0.328125 0.5 -0.5 1.171875q-0.15625 0.65625 -0.15625 1.375l0 0.203125zm16.398697 4.90625q-0.09375 -0.1875 -0.15625 -0.484375q-0.0625 -0.296875 -0.09375 -0.609375q-0.25 0.265625 -0.578125 0.5q-0.3125 0.21875 -0.703125 0.40625q-0.375 0.171875 -0.8125 0.265625q-0.4375 0.109375 -0.9375 0.109375q-0.796875 0 -1.4375 -0.234375q-0.640625 -0.234375 -1.09375 -0.625q-0.453125 -0.390625 -0.703125 -0.9375q-0.234375 -0.546875 -0.234375 -1.171875q0 -0.828125 0.328125 -1.453125q0.328125 -0.625 0.921875 -1.03125q0.609375 -0.40625 1.453125 -0.609375q0.859375 -0.21875 1.90625 -0.21875l1.875 0l0 -0.78125q0 -0.453125 -0.171875 -0.8125q-0.171875 -0.359375 -0.484375 -0.609375q-0.296875 -0.265625 -0.734375 -0.40625q-0.4375 -0.140625 -0.984375 -0.140625q-0.515625 0 -0.921875 0.140625q-0.40625 0.125 -0.6875 0.34375q-0.265625 0.203125 -0.421875 0.5q-0.15625 0.28125 -0.15625 0.609375l-1.71875 0q0 -0.546875 0.265625 -1.078125q0.28125 -0.53125 0.796875 -0.953125q0.515625 -0.421875 1.25 -0.671875q0.75 -0.265625 1.6875 -0.265625q0.84375 0 1.578125 0.203125q0.734375 0.203125 1.265625 0.625q0.53125 0.421875 0.84375 1.0625q0.3125 0.625 0.3125 1.46875l0 4.671875q0 0.5 0.078125 1.0625q0.09375 0.5625 0.265625 0.96875l0 0.15625l-1.796875 0zm-3.03125 -1.3125q0.5 0 0.9375 -0.125q0.4375 -0.125 0.796875 -0.34375q0.359375 -0.21875 0.609375 -0.484375q0.265625 -0.28125 0.421875 -0.578125l0 -2.03125l-1.59375 0q-1.515625 0 -2.359375 0.453125q-0.828125 0.4375 -0.828125 1.390625q0 0.375 0.125 0.703125q0.140625 0.3125 0.390625 0.546875q0.25 0.21875 0.625 0.34375q0.375 0.125 0.875 0.125zm11.695572 -11.15625l0 2.4375l3.828125 0l0 1.3125l-3.828125 0l0 5.46875q0 0.578125 0.140625 0.96875q0.15625 0.375 0.421875 0.609375q0.265625 0.21875 0.59375 0.3125q0.34375 0.09375 0.71875 0.09375q0.28125 0 0.578125 -0.03125q0.296875 -0.046875 0.578125 -0.078125q0.28125 -0.046875 0.53125 -0.09375q0.25 -0.0625 0.40625 -0.09375l0.234375 1.203125q-0.203125 0.140625 -0.515625 0.234375q-0.296875 0.09375 -0.671875 0.15625q-0.359375 0.078125 -0.765625 0.109375q-0.390625 0.046875 -0.796875 0.046875q-0.671875 0 -1.25 -0.1875q-0.578125 -0.1875 -1.015625 -0.59375q-0.421875 -0.421875 -0.671875 -1.078125q-0.234375 -0.65625 -0.234375 -1.578125l0 -5.46875l-2.640625 0l0 -1.3125l2.640625 0l0 -2.4375l1.71875 0zm11.570587 12.65625q-1.0625 0 -1.953125 -0.359375q-0.875 -0.359375 -1.515625 -1.015625q-0.625 -0.65625 -0.984375 -1.546875q-0.34375 -0.890625 -0.34375 -1.9375l0 -0.390625q0 -1.203125 0.390625 -2.15625q0.390625 -0.96875 1.03125 -1.625q0.65625 -0.671875 1.46875 -1.015625q0.828125 -0.359375 1.6875 -0.359375q1.078125 0 1.890625 0.375q0.8125 0.375 1.34375 1.046875q0.546875 0.65625 0.8125 1.5625q0.265625 0.890625 0.265625 1.9375l0 0.765625l-7.171875 0q0.03125 0.6875 0.265625 1.296875q0.234375 0.59375 0.640625 1.046875q0.421875 0.453125 1.0 0.71875q0.578125 0.25 1.265625 0.25q0.921875 0 1.625 -0.359375q0.71875 -0.375 1.203125 -0.984375l1.046875 0.8125q-0.25 0.375 -0.625 0.734375q-0.375 0.34375 -0.875 0.609375q-0.484375 0.265625 -1.109375 0.421875q-0.625 0.171875 -1.359375 0.171875zm-0.21875 -9.0q-0.515625 0 -0.984375 0.1875q-0.46875 0.1875 -0.84375 0.5625q-0.359375 0.359375 -0.625 0.890625q-0.25 0.53125 -0.34375 1.234375l5.390625 0l0 -0.125q-0.03125 -0.5 -0.1875 -0.984375q-0.15625 -0.5 -0.484375 -0.890625q-0.3125 -0.390625 -0.796875 -0.625q-0.46875 -0.25 -1.125 -0.25z" fill-rule="nonzero"></path><path fill="#000000" d="m129.66977 554.46735l2.203125 6.765625l2.375 -6.765625l2.125 0l0 13.515625l-1.671875 0l0 -5.390625l0.140625 -5.640625l-2.5 7.28125l-0.96875 0l-2.296875 -7.09375l0.140625 5.453125l0 5.390625l-1.6718826 0l0 -13.515625l2.1250076 0zm9.586197 3.484375l5.125 0l0 8.546875l3.265625 0l0 1.484375l-8.390625 0l0 -1.484375l3.40625 0l0 -7.0625l-3.40625 0l0 -1.484375zm3.1875 -2.640625q0 -0.421875 0.25 -0.71875q0.25 -0.296875 0.78125 -0.296875q0.5 0 0.765625 0.296875q0.265625 0.296875 0.265625 0.71875q0 0.421875 -0.265625 0.703125q-0.265625 0.265625 -0.765625 0.265625q-0.53125 0 -0.78125 -0.265625q-0.25 -0.28125 -0.25 -0.703125zm11.789322 0.203125l0 2.4375l3.828125 0l0 1.3125l-3.828125 0l0 5.46875q0 0.578125 0.140625 0.96875q0.15625 0.375 0.421875 0.609375q0.265625 0.21875 0.59375 0.3125q0.34375 0.09375 0.71875 0.09375q0.28125 0 0.578125 -0.03125q0.296875 -0.046875 0.578125 -0.078125q0.28125 -0.046875 0.53125 -0.09375q0.25 -0.0625 0.40625 -0.09375l0.234375 1.203125q-0.203125 0.140625 -0.515625 0.234375q-0.296875 0.09375 -0.671875 0.15625q-0.359375 0.078125 -0.765625 0.109375q-0.390625 0.046875 -0.796875 0.046875q-0.671875 0 -1.25 -0.1875q-0.578125 -0.1875 -1.015625 -0.59375q-0.421875 -0.421875 -0.671875 -1.078125q-0.234375 -0.65625 -0.234375 -1.578125l0 -5.46875l-2.640625 0l0 -1.3125l2.640625 0l0 -2.4375l1.71875 0zm7.414322 2.4375l5.125 0l0 8.546875l3.265625 0l0 1.484375l-8.390625 0l0 -1.484375l3.40625 0l0 -7.0625l-3.40625 0l0 -1.484375zm3.1875 -2.640625q0 -0.421875 0.25 -0.71875q0.25 -0.296875 0.78125 -0.296875q0.5 0 0.765625 0.296875q0.265625 0.296875 0.265625 0.71875q0 0.421875 -0.265625 0.703125q-0.265625 0.265625 -0.765625 0.265625q-0.53125 0 -0.78125 -0.265625q-0.25 -0.28125 -0.25 -0.703125zm7.414322 7.5625q0 -1.109375 0.265625 -2.046875q0.28125 -0.953125 0.796875 -1.625q0.53125 -0.6875 1.265625 -1.0625q0.75 -0.375 1.6875 -0.375q0.921875 0 1.625 0.328125q0.703125 0.328125 1.1875 0.953125l0.078125 -1.09375l1.5625 0l0 9.8125q0 1.0 -0.3125 1.765625q-0.3125 0.765625 -0.875 1.296875q-0.546875 0.546875 -1.328125 0.828125q-0.78125 0.28125 -1.734375 0.28125q-0.390625 0 -0.890625 -0.09375q-0.5 -0.078125 -1.015625 -0.28125q-0.515625 -0.203125 -1.0 -0.546875q-0.46875 -0.328125 -0.8125 -0.8125l0.890625 -1.03125q0.3125 0.375 0.640625 0.640625q0.34375 0.265625 0.6875 0.421875q0.34375 0.15625 0.6875 0.21875q0.34375 0.078125 0.6875 0.078125q0.609375 0 1.09375 -0.171875q0.5 -0.171875 0.84375 -0.515625q0.359375 -0.34375 0.53125 -0.84375q0.1875 -0.5 0.1875 -1.140625l0 -0.875q-0.5 0.578125 -1.1875 0.890625q-0.671875 0.296875 -1.578125 0.296875q-0.90625 0 -1.65625 -0.390625q-0.734375 -0.390625 -1.25 -1.078125q-0.515625 -0.6875 -0.796875 -1.609375q-0.28125 -0.9375 -0.28125 -2.015625l0 -0.203125zm1.71875 0.203125q0 0.734375 0.15625 1.390625q0.15625 0.65625 0.484375 1.15625q0.328125 0.5 0.828125 0.796875q0.515625 0.296875 1.234375 0.296875q0.4375 0 0.796875 -0.109375q0.359375 -0.109375 0.640625 -0.296875q0.28125 -0.203125 0.5 -0.46875q0.234375 -0.265625 0.390625 -0.59375l0 -4.609375q-0.15625 -0.3125 -0.390625 -0.5625q-0.21875 -0.265625 -0.515625 -0.453125q-0.28125 -0.1875 -0.640625 -0.296875q-0.34375 -0.109375 -0.765625 -0.109375q-0.71875 0 -1.234375 0.296875q-0.515625 0.296875 -0.84375 0.8125q-0.328125 0.5 -0.484375 1.171875q-0.15625 0.65625 -0.15625 1.375l0 0.203125zm16.383072 4.90625q-0.09375 -0.1875 -0.15625 -0.484375q-0.0625 -0.296875 -0.09375 -0.609375q-0.25 0.265625 -0.578125 0.5q-0.3125 0.21875 -0.703125 0.40625q-0.375 0.171875 -0.8125 0.265625q-0.4375 0.109375 -0.9375 0.109375q-0.796875 0 -1.4375 -0.234375q-0.640625 -0.234375 -1.09375 -0.625q-0.453125 -0.390625 -0.703125 -0.9375q-0.234375 -0.546875 -0.234375 -1.171875q0 -0.828125 0.328125 -1.453125q0.328125 -0.625 0.921875 -1.03125q0.609375 -0.40625 1.453125 -0.609375q0.859375 -0.21875 1.90625 -0.21875l1.875 0l0 -0.78125q0 -0.453125 -0.171875 -0.8125q-0.171875 -0.359375 -0.484375 -0.609375q-0.296875 -0.265625 -0.734375 -0.40625q-0.4375 -0.140625 -0.984375 -0.140625q-0.515625 0 -0.921875 0.140625q-0.40625 0.125 -0.6875 0.34375q-0.265625 0.203125 -0.421875 0.5q-0.15625 0.28125 -0.15625 0.609375l-1.71875 0q0 -0.546875 0.265625 -1.078125q0.28125 -0.53125 0.796875 -0.953125q0.515625 -0.421875 1.25 -0.671875q0.75 -0.265625 1.6875 -0.265625q0.84375 0 1.578125 0.203125q0.734375 0.203125 1.265625 0.625q0.53125 0.421875 0.84375 1.0625q0.3125 0.625 0.3125 1.46875l0 4.671875q0 0.5 0.078125 1.0625q0.09375 0.5625 0.265625 0.96875l0 0.15625l-1.796875 0zm-3.03125 -1.3125q0.5 0 0.9375 -0.125q0.4375 -0.125 0.796875 -0.34375q0.359375 -0.21875 0.609375 -0.484375q0.265625 -0.28125 0.421875 -0.578125l0 -2.03125l-1.59375 0q-1.515625 0 -2.359375 0.453125q-0.828125 0.4375 -0.828125 1.390625q0 0.375 0.125 0.703125q0.140625 0.3125 0.390625 0.546875q0.25 0.21875 0.625 0.34375q0.375 0.125 0.875 0.125zm11.695572 -11.15625l0 2.4375l3.828125 0l0 1.3125l-3.828125 0l0 5.46875q0 0.578125 0.140625 0.96875q0.15625 0.375 0.421875 0.609375q0.265625 0.21875 0.59375 0.3125q0.34375 0.09375 0.71875 0.09375q0.28125 0 0.578125 -0.03125q0.296875 -0.046875 0.578125 -0.078125q0.28125 -0.046875 0.53125 -0.09375q0.25 -0.0625 0.40625 -0.09375l0.234375 1.203125q-0.203125 0.140625 -0.515625 0.234375q-0.296875 0.09375 -0.671875 0.15625q-0.359375 0.078125 -0.765625 0.109375q-0.390625 0.046875 -0.796875 0.046875q-0.671875 0 -1.25 -0.1875q-0.578125 -0.1875 -1.015625 -0.59375q-0.421875 -0.421875 -0.671875 -1.078125q-0.234375 -0.65625 -0.234375 -1.578125l0 -5.46875l-2.640625 0l0 -1.3125l2.640625 0l0 -2.4375l1.71875 0zm7.414322 2.4375l5.125 0l0 8.546875l3.265625 0l0 1.484375l-8.390625 0l0 -1.484375l3.40625 0l0 -7.0625l-3.40625 0l0 -1.484375zm3.1875 -2.640625q0 -0.421875 0.25 -0.71875q0.25 -0.296875 0.78125 -0.296875q0.5 0 0.765625 0.296875q0.265625 0.296875 0.265625 0.71875q0 0.421875 -0.265625 0.703125q-0.265625 0.265625 -0.765625 0.265625q-0.53125 0 -0.78125 -0.265625q-0.25 -0.28125 -0.25 -0.703125zm7.242447 7.5625q0 -1.09375 0.3125 -2.015625q0.328125 -0.9375 0.90625 -1.625q0.59375 -0.6875 1.4375 -1.078125q0.84375 -0.390625 1.90625 -0.390625q1.0625 0 1.90625 0.390625q0.859375 0.390625 1.4375 1.078125q0.59375 0.6875 0.90625 1.625q0.328125 0.921875 0.328125 2.015625l0 0.203125q0 1.078125 -0.328125 2.015625q-0.3125 0.921875 -0.90625 1.609375q-0.578125 0.6875 -1.421875 1.078125q-0.84375 0.390625 -1.90625 0.390625q-1.0625 0 -1.921875 -0.390625q-0.84375 -0.390625 -1.4375 -1.078125q-0.578125 -0.6875 -0.90625 -1.609375q-0.3125 -0.9375 -0.3125 -2.015625l0 -0.203125zm1.71875 0.203125q0 0.734375 0.171875 1.40625q0.1875 0.671875 0.546875 1.1875q0.359375 0.515625 0.890625 0.8125q0.53125 0.296875 1.25 0.296875q0.703125 0 1.234375 -0.296875q0.546875 -0.296875 0.890625 -0.8125q0.359375 -0.515625 0.53125 -1.1875q0.1875 -0.671875 0.1875 -1.40625l0 -0.203125q0 -0.734375 -0.1875 -1.40625q-0.171875 -0.671875 -0.53125 -1.171875q-0.359375 -0.515625 -0.890625 -0.8125q-0.53125 -0.3125 -1.25 -0.3125q-0.71875 0 -1.25 0.3125q-0.515625 0.296875 -0.875 0.8125q-0.359375 0.5 -0.546875 1.171875q-0.171875 0.671875 -0.171875 1.40625l0 0.203125zm11.508072 -5.125l0.125 1.484375q0.546875 -0.78125 1.34375 -1.21875q0.796875 -0.453125 1.78125 -0.453125q0.78125 0 1.421875 0.21875q0.65625 0.21875 1.109375 0.703125q0.453125 0.46875 0.6875 1.203125q0.25 0.71875 0.25 1.71875l0 6.375l-1.703125 0l0 -6.34375q0 -0.65625 -0.15625 -1.125q-0.140625 -0.46875 -0.4375 -0.75q-0.296875 -0.28125 -0.71875 -0.40625q-0.421875 -0.140625 -0.96875 -0.140625q-0.859375 0 -1.515625 0.4375q-0.65625 0.421875 -1.046875 1.125l0 7.203125l-1.71875 0l0 -10.03125l1.546875 0zm16.320572 7.375q0 -0.3125 -0.125 -0.546875q-0.109375 -0.25 -0.40625 -0.453125q-0.28125 -0.21875 -0.765625 -0.390625q-0.46875 -0.171875 -1.171875 -0.296875q-0.859375 -0.1875 -1.578125 -0.4375q-0.703125 -0.25 -1.203125 -0.59375q-0.5 -0.34375 -0.78125 -0.8125q-0.28125 -0.46875 -0.28125 -1.09375q0 -0.609375 0.28125 -1.140625q0.296875 -0.546875 0.8125 -0.9375q0.515625 -0.40625 1.234375 -0.625q0.71875 -0.234375 1.578125 -0.234375q0.9375 0 1.671875 0.25q0.75 0.234375 1.265625 0.65625q0.515625 0.421875 0.796875 1.0q0.296875 0.5625 0.296875 1.21875l-1.71875 0q0 -0.3125 -0.171875 -0.625q-0.171875 -0.3125 -0.46875 -0.546875q-0.296875 -0.25 -0.71875 -0.390625q-0.421875 -0.15625 -0.953125 -0.15625q-0.546875 0 -0.953125 0.125q-0.40625 0.109375 -0.6875 0.3125q-0.265625 0.203125 -0.40625 0.484375q-0.140625 0.265625 -0.140625 0.546875q0 0.296875 0.109375 0.53125q0.109375 0.234375 0.375 0.421875q0.28125 0.1875 0.734375 0.34375q0.46875 0.140625 1.171875 0.28125q0.921875 0.1875 1.65625 0.453125q0.734375 0.25 1.234375 0.609375q0.5 0.359375 0.765625 0.828125q0.265625 0.46875 0.265625 1.09375q0 0.671875 -0.3125 1.21875q-0.296875 0.546875 -0.828125 0.9375q-0.53125 0.390625 -1.296875 0.609375q-0.75 0.203125 -1.640625 0.203125q-1.015625 0 -1.8125 -0.265625q-0.796875 -0.28125 -1.359375 -0.734375q-0.546875 -0.453125 -0.84375 -1.046875q-0.28125 -0.59375 -0.28125 -1.234375l1.71875 0q0.03125 0.53125 0.28125 0.890625q0.25 0.359375 0.609375 0.59375q0.375 0.21875 0.8125 0.3125q0.453125 0.09375 0.875 0.09375q1.09375 0 1.71875 -0.390625q0.640625 -0.40625 0.640625 -1.0625z" fill-rule="nonzero"></path><path fill="#000000" fill-opacity="0.0" d="m96.343834 344.6824l0 0c0 -9.587433 7.772148 -17.359558 17.359581 -17.359558l148.084 0c4.6040344 0 9.019501 1.828949 12.275055 5.084503c3.2555542 3.2555542 5.084503 7.6710205 5.084503 12.275055l0 69.438324c0 9.587433 -7.7721252 17.359589 -17.359558 17.359589l-148.084 0c-9.587433 0 -17.359581 -7.772156 -17.359581 -17.359589z" fill-rule="evenodd"></path><path stroke="#000000" stroke-width="3.0" stroke-linejoin="round" stroke-linecap="butt" d="m96.343834 344.6824l0 0c0 -9.587433 7.772148 -17.359558 17.359581 -17.359558l148.084 0c4.6040344 0 9.019501 1.828949 12.275055 5.084503c3.2555542 3.2555542 5.084503 7.6710205 5.084503 12.275055l0 69.438324c0 9.587433 -7.7721252 17.359589 -17.359558 17.359589l-148.084 0c-9.587433 0 -17.359581 -7.772156 -17.359581 -17.359589z" fill-rule="evenodd"></path><path fill="#000000" d="m168.83864 369.8997l0 5.421875l-1.71875 0l0 -13.515625l4.390625 0q0.90625 0.03125 1.71875 0.296875q0.8125 0.265625 1.421875 0.78125q0.609375 0.5 0.96875 1.265625q0.359375 0.75 0.359375 1.71875q0 0.96875 -0.359375 1.71875q-0.359375 0.75 -0.96875 1.265625q-0.609375 0.5 -1.421875 0.78125q-0.8125 0.265625 -1.71875 0.265625l-2.671875 0zm0 -1.40625l2.671875 0q0.59375 -0.015625 1.09375 -0.1875q0.5 -0.1875 0.859375 -0.515625q0.375 -0.34375 0.578125 -0.8125q0.21875 -0.484375 0.21875 -1.09375q0 -0.609375 -0.21875 -1.09375q-0.203125 -0.5 -0.578125 -0.84375q-0.359375 -0.34375 -0.859375 -0.53125q-0.5 -0.1875 -1.09375 -0.1875l-2.671875 0l0 5.265625zm9.601822 -7.421875l5.125 0l0 12.765625l3.265625 0l0 1.484375l-8.390625 0l0 -1.484375l3.40625 0l0 -11.265625l-3.40625 0l0 -1.5zm17.508072 14.25q-0.09375 -0.1875 -0.15625 -0.484375q-0.0625 -0.296875 -0.09375 -0.609375q-0.25 0.265625 -0.578125 0.5q-0.3125 0.21875 -0.703125 0.40625q-0.375 0.171875 -0.8125 0.265625q-0.4375 0.109375 -0.9375 0.109375q-0.796875 0 -1.4375 -0.234375q-0.640625 -0.234375 -1.09375 -0.625q-0.453125 -0.390625 -0.703125 -0.9375q-0.234375 -0.546875 -0.234375 -1.171875q0 -0.828125 0.328125 -1.453125q0.328125 -0.625 0.921875 -1.03125q0.609375 -0.40625 1.453125 -0.609375q0.859375 -0.21875 1.90625 -0.21875l1.875 0l0 -0.78125q0 -0.453125 -0.171875 -0.8125q-0.171875 -0.359375 -0.484375 -0.609375q-0.296875 -0.265625 -0.734375 -0.40625q-0.4375 -0.140625 -0.984375 -0.140625q-0.515625 0 -0.921875 0.140625q-0.40625 0.125 -0.6875 0.34375q-0.265625 0.203125 -0.421875 0.5q-0.15625 0.28125 -0.15625 0.609375l-1.71875 0q0 -0.546875 0.265625 -1.078125q0.28125 -0.53125 0.796875 -0.953125q0.515625 -0.421875 1.25 -0.671875q0.75 -0.265625 1.6875 -0.265625q0.84375 0 1.578125 0.203125q0.734375 0.203125 1.265625 0.625q0.53125 0.421875 0.84375 1.0625q0.3125 0.625 0.3125 1.46875l0 4.671875q0 0.5 0.078125 1.0625q0.09375 0.5625 0.265625 0.96875l0 0.15625l-1.796875 0zm-3.03125 -1.3125q0.5 0 0.9375 -0.125q0.4375 -0.125 0.796875 -0.34375q0.359375 -0.21875 0.609375 -0.484375q0.265625 -0.28125 0.421875 -0.578125l0 -2.03125l-1.59375 0q-1.515625 0 -2.359375 0.453125q-0.828125 0.4375 -0.828125 1.390625q0 0.375 0.125 0.703125q0.140625 0.3125 0.390625 0.546875q0.25 0.21875 0.625 0.34375q0.375 0.125 0.875 0.125zm9.179947 -8.71875l0.125 1.484375q0.546875 -0.78125 1.34375 -1.21875q0.796875 -0.453125 1.78125 -0.453125q0.78125 0 1.421875 0.21875q0.65625 0.21875 1.109375 0.703125q0.453125 0.46875 0.6875 1.203125q0.25 0.71875 0.25 1.71875l0 6.375l-1.703125 0l0 -6.34375q0 -0.65625 -0.15625 -1.125q-0.140625 -0.46875 -0.4375 -0.75q-0.296875 -0.28125 -0.71875 -0.40625q-0.421875 -0.140625 -0.96875 -0.140625q-0.859375 0 -1.515625 0.4375q-0.65625 0.421875 -1.046875 1.125l0 7.203125l-1.71875 0l0 -10.03125l1.546875 0z" fill-rule="nonzero"></path><path fill="#000000" d="m129.66977 383.80594l2.203125 6.765625l2.375 -6.765625l2.125 0l0 13.515625l-1.671875 0l0 -5.390625l0.140625 -5.640625l-2.5 7.28125l-0.96875 0l-2.296875 -7.09375l0.140625 5.453125l0 5.390625l-1.6718826 0l0 -13.515625l2.1250076 0zm9.586197 3.484375l5.125 0l0 8.546875l3.265625 0l0 1.484375l-8.390625 0l0 -1.484375l3.40625 0l0 -7.0625l-3.40625 0l0 -1.484375zm3.1875 -2.640625q0 -0.421875 0.25 -0.71875q0.25 -0.296875 0.78125 -0.296875q0.5 0 0.765625 0.296875q0.265625 0.296875 0.265625 0.71875q0 0.421875 -0.265625 0.703125q-0.265625 0.265625 -0.765625 0.265625q-0.53125 0 -0.78125 -0.265625q-0.25 -0.28125 -0.25 -0.703125zm11.789322 0.203125l0 2.4375l3.828125 0l0 1.3125l-3.828125 0l0 5.46875q0 0.578125 0.140625 0.96875q0.15625 0.375 0.421875 0.609375q0.265625 0.21875 0.59375 0.3125q0.34375 0.09375 0.71875 0.09375q0.28125 0 0.578125 -0.03125q0.296875 -0.046875 0.578125 -0.078125q0.28125 -0.046875 0.53125 -0.09375q0.25 -0.0625 0.40625 -0.09375l0.234375 1.203125q-0.203125 0.140625 -0.515625 0.234375q-0.296875 0.09375 -0.671875 0.15625q-0.359375 0.078125 -0.765625 0.109375q-0.390625 0.046875 -0.796875 0.046875q-0.671875 0 -1.25 -0.1875q-0.578125 -0.1875 -1.015625 -0.59375q-0.421875 -0.421875 -0.671875 -1.078125q-0.234375 -0.65625 -0.234375 -1.578125l0 -5.46875l-2.640625 0l0 -1.3125l2.640625 0l0 -2.4375l1.71875 0zm7.414322 2.4375l5.125 0l0 8.546875l3.265625 0l0 1.484375l-8.390625 0l0 -1.484375l3.40625 0l0 -7.0625l-3.40625 0l0 -1.484375zm3.1875 -2.640625q0 -0.421875 0.25 -0.71875q0.25 -0.296875 0.78125 -0.296875q0.5 0 0.765625 0.296875q0.265625 0.296875 0.265625 0.71875q0 0.421875 -0.265625 0.703125q-0.265625 0.265625 -0.765625 0.265625q-0.53125 0 -0.78125 -0.265625q-0.25 -0.28125 -0.25 -0.703125zm7.414322 7.5625q0 -1.109375 0.265625 -2.046875q0.28125 -0.953125 0.796875 -1.625q0.53125 -0.6875 1.265625 -1.0625q0.75 -0.375 1.6875 -0.375q0.921875 0 1.625 0.328125q0.703125 0.328125 1.1875 0.953125l0.078125 -1.09375l1.5625 0l0 9.8125q0 1.0 -0.3125 1.765625q-0.3125 0.765625 -0.875 1.296875q-0.546875 0.546875 -1.328125 0.828125q-0.78125 0.28125 -1.734375 0.28125q-0.390625 0 -0.890625 -0.09375q-0.5 -0.078125 -1.015625 -0.28125q-0.515625 -0.203125 -1.0 -0.546875q-0.46875 -0.328125 -0.8125 -0.8125l0.890625 -1.03125q0.3125 0.375 0.640625 0.640625q0.34375 0.265625 0.6875 0.421875q0.34375 0.15625 0.6875 0.21875q0.34375 0.078125 0.6875 0.078125q0.609375 0 1.09375 -0.171875q0.5 -0.171875 0.84375 -0.515625q0.359375 -0.34375 0.53125 -0.84375q0.1875 -0.5 0.1875 -1.140625l0 -0.875q-0.5 0.578125 -1.1875 0.890625q-0.671875 0.296875 -1.578125 0.296875q-0.90625 0 -1.65625 -0.390625q-0.734375 -0.390625 -1.25 -1.078125q-0.515625 -0.6875 -0.796875 -1.609375q-0.28125 -0.9375 -0.28125 -2.015625l0 -0.203125zm1.71875 0.203125q0 0.734375 0.15625 1.390625q0.15625 0.65625 0.484375 1.15625q0.328125 0.5 0.828125 0.796875q0.515625 0.296875 1.234375 0.296875q0.4375 0 0.796875 -0.109375q0.359375 -0.109375 0.640625 -0.296875q0.28125 -0.203125 0.5 -0.46875q0.234375 -0.265625 0.390625 -0.59375l0 -4.609375q-0.15625 -0.3125 -0.390625 -0.5625q-0.21875 -0.265625 -0.515625 -0.453125q-0.28125 -0.1875 -0.640625 -0.296875q-0.34375 -0.109375 -0.765625 -0.109375q-0.71875 0 -1.234375 0.296875q-0.515625 0.296875 -0.84375 0.8125q-0.328125 0.5 -0.484375 1.171875q-0.15625 0.65625 -0.15625 1.375l0 0.203125zm16.383072 4.90625q-0.09375 -0.1875 -0.15625 -0.484375q-0.0625 -0.296875 -0.09375 -0.609375q-0.25 0.265625 -0.578125 0.5q-0.3125 0.21875 -0.703125 0.40625q-0.375 0.171875 -0.8125 0.265625q-0.4375 0.109375 -0.9375 0.109375q-0.796875 0 -1.4375 -0.234375q-0.640625 -0.234375 -1.09375 -0.625q-0.453125 -0.390625 -0.703125 -0.9375q-0.234375 -0.546875 -0.234375 -1.171875q0 -0.828125 0.328125 -1.453125q0.328125 -0.625 0.921875 -1.03125q0.609375 -0.40625 1.453125 -0.609375q0.859375 -0.21875 1.90625 -0.21875l1.875 0l0 -0.78125q0 -0.453125 -0.171875 -0.8125q-0.171875 -0.359375 -0.484375 -0.609375q-0.296875 -0.265625 -0.734375 -0.40625q-0.4375 -0.140625 -0.984375 -0.140625q-0.515625 0 -0.921875 0.140625q-0.40625 0.125 -0.6875 0.34375q-0.265625 0.203125 -0.421875 0.5q-0.15625 0.28125 -0.15625 0.609375l-1.71875 0q0 -0.546875 0.265625 -1.078125q0.28125 -0.53125 0.796875 -0.953125q0.515625 -0.421875 1.25 -0.671875q0.75 -0.265625 1.6875 -0.265625q0.84375 0 1.578125 0.203125q0.734375 0.203125 1.265625 0.625q0.53125 0.421875 0.84375 1.0625q0.3125 0.625 0.3125 1.46875l0 4.671875q0 0.5 0.078125 1.0625q0.09375 0.5625 0.265625 0.96875l0 0.15625l-1.796875 0zm-3.03125 -1.3125q0.5 0 0.9375 -0.125q0.4375 -0.125 0.796875 -0.34375q0.359375 -0.21875 0.609375 -0.484375q0.265625 -0.28125 0.421875 -0.578125l0 -2.03125l-1.59375 0q-1.515625 0 -2.359375 0.453125q-0.828125 0.4375 -0.828125 1.390625q0 0.375 0.125 0.703125q0.140625 0.3125 0.390625 0.546875q0.25 0.21875 0.625 0.34375q0.375 0.125 0.875 0.125zm11.695572 -11.15625l0 2.4375l3.828125 0l0 1.3125l-3.828125 0l0 5.46875q0 0.578125 0.140625 0.96875q0.15625 0.375 0.421875 0.609375q0.265625 0.21875 0.59375 0.3125q0.34375 0.09375 0.71875 0.09375q0.28125 0 0.578125 -0.03125q0.296875 -0.046875 0.578125 -0.078125q0.28125 -0.046875 0.53125 -0.09375q0.25 -0.0625 0.40625 -0.09375l0.234375 1.203125q-0.203125 0.140625 -0.515625 0.234375q-0.296875 0.09375 -0.671875 0.15625q-0.359375 0.078125 -0.765625 0.109375q-0.390625 0.046875 -0.796875 0.046875q-0.671875 0 -1.25 -0.1875q-0.578125 -0.1875 -1.015625 -0.59375q-0.421875 -0.421875 -0.671875 -1.078125q-0.234375 -0.65625 -0.234375 -1.578125l0 -5.46875l-2.640625 0l0 -1.3125l2.640625 0l0 -2.4375l1.71875 0zm7.414322 2.4375l5.125 0l0 8.546875l3.265625 0l0 1.484375l-8.390625 0l0 -1.484375l3.40625 0l0 -7.0625l-3.40625 0l0 -1.484375zm3.1875 -2.640625q0 -0.421875 0.25 -0.71875q0.25 -0.296875 0.78125 -0.296875q0.5 0 0.765625 0.296875q0.265625 0.296875 0.265625 0.71875q0 0.421875 -0.265625 0.703125q-0.265625 0.265625 -0.765625 0.265625q-0.53125 0 -0.78125 -0.265625q-0.25 -0.28125 -0.25 -0.703125zm7.242447 7.5625q0 -1.09375 0.3125 -2.015625q0.328125 -0.9375 0.90625 -1.625q0.59375 -0.6875 1.4375 -1.078125q0.84375 -0.390625 1.90625 -0.390625q1.0625 0 1.90625 0.390625q0.859375 0.390625 1.4375 1.078125q0.59375 0.6875 0.90625 1.625q0.328125 0.921875 0.328125 2.015625l0 0.203125q0 1.078125 -0.328125 2.015625q-0.3125 0.921875 -0.90625 1.609375q-0.578125 0.6875 -1.421875 1.078125q-0.84375 0.390625 -1.90625 0.390625q-1.0625 0 -1.921875 -0.390625q-0.84375 -0.390625 -1.4375 -1.078125q-0.578125 -0.6875 -0.90625 -1.609375q-0.3125 -0.9375 -0.3125 -2.015625l0 -0.203125zm1.71875 0.203125q0 0.734375 0.171875 1.40625q0.1875 0.671875 0.546875 1.1875q0.359375 0.515625 0.890625 0.8125q0.53125 0.296875 1.25 0.296875q0.703125 0 1.234375 -0.296875q0.546875 -0.296875 0.890625 -0.8125q0.359375 -0.515625 0.53125 -1.1875q0.1875 -0.671875 0.1875 -1.40625l0 -0.203125q0 -0.734375 -0.1875 -1.40625q-0.171875 -0.671875 -0.53125 -1.171875q-0.359375 -0.515625 -0.890625 -0.8125q-0.53125 -0.3125 -1.25 -0.3125q-0.71875 0 -1.25 0.3125q-0.515625 0.296875 -0.875 0.8125q-0.359375 0.5 -0.546875 1.171875q-0.171875 0.671875 -0.171875 1.40625l0 0.203125zm11.508072 -5.125l0.125 1.484375q0.546875 -0.78125 1.34375 -1.21875q0.796875 -0.453125 1.78125 -0.453125q0.78125 0 1.421875 0.21875q0.65625 0.21875 1.109375 0.703125q0.453125 0.46875 0.6875 1.203125q0.25 0.71875 0.25 1.71875l0 6.375l-1.703125 0l0 -6.34375q0 -0.65625 -0.15625 -1.125q-0.140625 -0.46875 -0.4375 -0.75q-0.296875 -0.28125 -0.71875 -0.40625q-0.421875 -0.140625 -0.96875 -0.140625q-0.859375 0 -1.515625 0.4375q-0.65625 0.421875 -1.046875 1.125l0 7.203125l-1.71875 0l0 -10.03125l1.546875 0zm16.320572 7.375q0 -0.3125 -0.125 -0.546875q-0.109375 -0.25 -0.40625 -0.453125q-0.28125 -0.21875 -0.765625 -0.390625q-0.46875 -0.171875 -1.171875 -0.296875q-0.859375 -0.1875 -1.578125 -0.4375q-0.703125 -0.25 -1.203125 -0.59375q-0.5 -0.34375 -0.78125 -0.8125q-0.28125 -0.46875 -0.28125 -1.09375q0 -0.609375 0.28125 -1.140625q0.296875 -0.546875 0.8125 -0.9375q0.515625 -0.40625 1.234375 -0.625q0.71875 -0.234375 1.578125 -0.234375q0.9375 0 1.671875 0.25q0.75 0.234375 1.265625 0.65625q0.515625 0.421875 0.796875 1.0q0.296875 0.5625 0.296875 1.21875l-1.71875 0q0 -0.3125 -0.171875 -0.625q-0.171875 -0.3125 -0.46875 -0.546875q-0.296875 -0.25 -0.71875 -0.390625q-0.421875 -0.15625 -0.953125 -0.15625q-0.546875 0 -0.953125 0.125q-0.40625 0.109375 -0.6875 0.3125q-0.265625 0.203125 -0.40625 0.484375q-0.140625 0.265625 -0.140625 0.546875q0 0.296875 0.109375 0.53125q0.109375 0.234375 0.375 0.421875q0.28125 0.1875 0.734375 0.34375q0.46875 0.140625 1.171875 0.28125q0.921875 0.1875 1.65625 0.453125q0.734375 0.25 1.234375 0.609375q0.5 0.359375 0.765625 0.828125q0.265625 0.46875 0.265625 1.09375q0 0.671875 -0.3125 1.21875q-0.296875 0.546875 -0.828125 0.9375q-0.53125 0.390625 -1.296875 0.609375q-0.75 0.203125 -1.640625 0.203125q-1.015625 0 -1.8125 -0.265625q-0.796875 -0.28125 -1.359375 -0.734375q-0.546875 -0.453125 -0.84375 -1.046875q-0.28125 -0.59375 -0.28125 -1.234375l1.71875 0q0.03125 0.53125 0.28125 0.890625q0.25 0.359375 0.609375 0.59375q0.375 0.21875 0.8125 0.3125q0.453125 0.09375 0.875 0.09375q1.09375 0 1.71875 -0.390625q0.640625 -0.40625 0.640625 -1.0625z" fill-rule="nonzero"></path><path fill="#000000" fill-opacity="0.0" d="m96.343834 25.359581l0 0c0 -9.587432 7.772148 -17.359581 17.359581 -17.359581l148.084 0c4.6040344 0 9.019501 1.8289509 12.275055 5.084503c3.2555542 3.2555523 5.084503 7.67103 5.084503 12.275078l0 69.43832c0 9.587433 -7.7721252 17.359581 -17.359558 17.359581l-148.084 0c-9.587433 0 -17.359581 -7.772148 -17.359581 -17.359581z" fill-rule="evenodd"></path><path stroke="#000000" stroke-width="3.0" stroke-linejoin="round" stroke-linecap="butt" d="m96.343834 25.359581l0 0c0 -9.587432 7.772148 -17.359581 17.359581 -17.359581l148.084 0c4.6040344 0 9.019501 1.8289509 12.275055 5.084503c3.2555542 3.2555523 5.084503 7.67103 5.084503 12.275078l0 69.43832c0 9.587433 -7.7721252 17.359581 -17.359558 17.359581l-148.084 0c-9.587433 0 -17.359581 -7.772148 -17.359581 -17.359581z" fill-rule="evenodd"></path><path fill="#000000" d="m144.56795 42.483112l8.171875 0l0 1.5l-3.234375 0l0 10.53125l3.234375 0l0 1.484375l-8.171875 0l0 -1.484375l3.171875 0l0 -10.53125l-3.171875 0l0 -1.5zm10.883072 8.40625q0 -1.109375 0.28125 -2.046875q0.28125 -0.953125 0.796875 -1.625q0.53125 -0.6875 1.265625 -1.0625q0.75 -0.375 1.671875 -0.375q0.890625 0 1.5625 0.296875q0.671875 0.296875 1.171875 0.875l0 -5.203125l1.71875 0l0 14.25l-1.578125 0l-0.078125 -1.0625q-0.5 0.609375 -1.203125 0.9375q-0.6875 0.3125 -1.625 0.3125q-0.90625 0 -1.640625 -0.390625q-0.734375 -0.390625 -1.265625 -1.078125q-0.515625 -0.6875 -0.796875 -1.609375q-0.28125 -0.9375 -0.28125 -2.015625l0 -0.203125zm1.703125 0.203125q0 0.734375 0.15625 1.390625q0.171875 0.65625 0.5 1.15625q0.328125 0.5 0.828125 0.796875q0.515625 0.296875 1.234375 0.296875q0.4375 0 0.78125 -0.09375q0.359375 -0.109375 0.640625 -0.296875q0.296875 -0.203125 0.515625 -0.46875q0.21875 -0.265625 0.390625 -0.578125l0 -4.65625q-0.34375 -0.625 -0.90625 -1.015625q-0.5625 -0.390625 -1.40625 -0.390625q-0.71875 0 -1.234375 0.296875q-0.515625 0.296875 -0.84375 0.8125q-0.328125 0.5 -0.5 1.171875q-0.15625 0.65625 -0.15625 1.375l0 0.203125zm14.242447 5.09375q-1.0625 0 -1.953125 -0.359375q-0.875 -0.359375 -1.515625 -1.015625q-0.625 -0.65625 -0.984375 -1.546875q-0.34375 -0.890625 -0.34375 -1.9375l0 -0.390625q0 -1.203125 0.390625 -2.15625q0.390625 -0.96875 1.03125 -1.625q0.65625 -0.671875 1.46875 -1.015625q0.828125 -0.359375 1.6875 -0.359375q1.078125 0 1.890625 0.375q0.8125 0.375 1.34375 1.046875q0.546875 0.65625 0.8125 1.5625q0.265625 0.890625 0.265625 1.9375l0 0.765625l-7.171875 0q0.03125 0.6875 0.265625 1.296875q0.234375 0.59375 0.640625 1.046875q0.421875 0.453125 1.0 0.71875q0.578125 0.25 1.265625 0.25q0.921875 0 1.625 -0.359375q0.71875 -0.375 1.203125 -0.984375l1.046875 0.8125q-0.25 0.375 -0.625 0.734375q-0.375 0.34375 -0.875 0.609375q-0.484375 0.265625 -1.109375 0.421875q-0.625 0.171875 -1.359375 0.171875zm-0.21875 -9.0q-0.515625 0 -0.984375 0.1875q-0.46875 0.1875 -0.84375 0.5625q-0.359375 0.359375 -0.625 0.890625q-0.25 0.53125 -0.34375 1.234375l5.390625 0l0 -0.125q-0.03125 -0.5 -0.1875 -0.984375q-0.15625 -0.5 -0.484375 -0.890625q-0.3125 -0.390625 -0.796875 -0.625q-0.46875 -0.25 -1.125 -0.25zm8.523697 -1.21875l0.125 1.484375q0.546875 -0.78125 1.34375 -1.21875q0.796875 -0.453125 1.78125 -0.453125q0.78125 0 1.421875 0.21875q0.65625 0.21875 1.109375 0.703125q0.453125 0.46875 0.6875 1.203125q0.25 0.71875 0.25 1.71875l0 6.375l-1.703125 0l0 -6.34375q0 -0.65625 -0.15625 -1.125q-0.140625 -0.46875 -0.4375 -0.75q-0.296875 -0.28125 -0.71875 -0.40625q-0.421875 -0.140625 -0.96875 -0.140625q-0.859375 0 -1.515625 0.4375q-0.65625 0.421875 -1.046875 1.125l0 7.203125l-1.71875 0l0 -10.03125l1.546875 0zm13.711197 -2.4375l0 2.4375l3.828125 0l0 1.3125l-3.828125 0l0 5.46875q0 0.578125 0.140625 0.96875q0.15625 0.375 0.421875 0.609375q0.265625 0.21875 0.59375 0.3125q0.34375 0.09375 0.71875 0.09375q0.28125 0 0.578125 -0.03125q0.296875 -0.046875 0.578125 -0.078125q0.28125 -0.046875 0.53125 -0.09375q0.25 -0.0625 0.40625 -0.09375l0.234375 1.203125q-0.203125 0.140625 -0.515625 0.234375q-0.296875 0.09375 -0.671875 0.15625q-0.359375 0.078125 -0.765625 0.109375q-0.390625 0.046875 -0.796875 0.046875q-0.671875 0 -1.25 -0.1875q-0.578125 -0.1875 -1.015625 -0.59375q-0.421875 -0.421875 -0.671875 -1.078125q-0.234375 -0.65625 -0.234375 -1.578125l0 -5.46875l-2.640625 0l0 -1.3125l2.640625 0l0 -2.4375l1.71875 0zm7.414322 2.4375l5.125 0l0 8.546875l3.265625 0l0 1.484375l-8.390625 0l0 -1.484375l3.40625 0l0 -7.0625l-3.40625 0l0 -1.484375zm3.1875 -2.640625q0 -0.421875 0.25 -0.71875q0.25 -0.296875 0.78125 -0.296875q0.5 0 0.765625 0.296875q0.265625 0.296875 0.265625 0.71875q0 0.421875 -0.265625 0.703125q-0.265625 0.265625 -0.765625 0.265625q-0.53125 0 -0.78125 -0.265625q-0.25 -0.28125 -0.25 -0.703125zm10.289322 12.671875l0 -8.71875l-2.765625 0l0 -1.3125l2.765625 0l0 -0.71875q0 -0.953125 0.28125 -1.6875q0.28125 -0.734375 0.796875 -1.21875q0.515625 -0.484375 1.234375 -0.734375q0.734375 -0.265625 1.625 -0.265625q0.609375 0 1.1875 0.109375q0.578125 0.109375 1.203125 0.265625l-0.21875 1.40625q-0.375 -0.125 -0.890625 -0.21875q-0.5 -0.09375 -1.0625 -0.09375q-1.21875 0 -1.828125 0.609375q-0.59375 0.59375 -0.59375 1.828125l0 0.71875l3.859375 0l0 1.3125l-3.859375 0l0 8.71875l-1.734375 0zm12.345306 -3.5625l0.4375 1.21875l3.0625 -7.6875l1.921875 0l-5.09375 11.578125q-0.171875 0.390625 -0.453125 0.828125q-0.265625 0.4375 -0.65625 0.796875q-0.390625 0.375 -0.921875 0.625q-0.515625 0.25 -1.1875 0.25q-0.125 0 -0.28125 -0.015625q-0.140625 0 -0.296875 -0.03125q-0.140625 -0.015625 -0.265625 -0.046875q-0.125 -0.03125 -0.21875 -0.046875l0.28125 -1.40625q0.0625 0 0.171875 0.015625q0.125 0.015625 0.234375 0.015625q0.125 0.015625 0.234375 0.015625q0.109375 0 0.171875 0q0.359375 0 0.640625 -0.203125q0.296875 -0.1875 0.515625 -0.453125q0.234375 -0.265625 0.390625 -0.5625q0.171875 -0.28125 0.265625 -0.46875l0.6875 -1.328125l-4.328125 -9.5625l1.921875 0l2.765625 6.46875z" fill-rule="nonzero"></path><path fill="#000000" d="m162.22119 74.49874l-4.515625 0l-1.078125 3.5l-1.71875 0l4.359375 -13.515625l1.4375 0l4.296875 13.515625l-1.71875 0l-1.0625 -3.5zm-4.046875 -1.484375l3.59375 0l-1.78125 -5.875l-1.8125 5.875zm15.461197 2.328125q0 -0.3125 -0.125 -0.546875q-0.109375 -0.25 -0.40625 -0.453125q-0.28125 -0.21875 -0.765625 -0.390625q-0.46875 -0.171875 -1.171875 -0.296875q-0.859375 -0.1875 -1.578125 -0.4375q-0.703125 -0.25 -1.203125 -0.59375q-0.5 -0.34375 -0.78125 -0.8125q-0.28125 -0.46875 -0.28125 -1.09375q0 -0.609375 0.28125 -1.140625q0.296875 -0.546875 0.8125 -0.9375q0.515625 -0.40625 1.234375 -0.625q0.71875 -0.234375 1.578125 -0.234375q0.9375 0 1.671875 0.25q0.75 0.234375 1.265625 0.65625q0.515625 0.421875 0.796875 1.0q0.296875 0.5625 0.296875 1.21875l-1.71875 0q0 -0.3125 -0.171875 -0.625q-0.171875 -0.3125 -0.46875 -0.546875q-0.296875 -0.25 -0.71875 -0.390625q-0.421875 -0.15625 -0.953125 -0.15625q-0.546875 0 -0.953125 0.125q-0.40625 0.109375 -0.6875 0.3125q-0.265625 0.203125 -0.40625 0.484375q-0.140625 0.265625 -0.140625 0.546875q0 0.296875 0.109375 0.53125q0.109375 0.234375 0.375 0.421875q0.28125 0.1875 0.734375 0.34375q0.46875 0.140625 1.171875 0.28125q0.921875 0.1875 1.65625 0.453125q0.734375 0.25 1.234375 0.609375q0.5 0.359375 0.765625 0.828125q0.265625 0.46875 0.265625 1.09375q0 0.671875 -0.3125 1.21875q-0.296875 0.546875 -0.828125 0.9375q-0.53125 0.390625 -1.296875 0.609375q-0.75 0.203125 -1.640625 0.203125q-1.015625 0 -1.8125 -0.265625q-0.796875 -0.28125 -1.359375 -0.734375q-0.546875 -0.453125 -0.84375 -1.046875q-0.28125 -0.59375 -0.28125 -1.234375l1.71875 0q0.03125 0.53125 0.28125 0.890625q0.25 0.359375 0.609375 0.59375q0.375 0.21875 0.8125 0.3125q0.453125 0.09375 0.875 0.09375q1.09375 0 1.71875 -0.390625q0.640625 -0.40625 0.640625 -1.0625zm11.195572 0q0 -0.3125 -0.125 -0.546875q-0.109375 -0.25 -0.40625 -0.453125q-0.28125 -0.21875 -0.765625 -0.390625q-0.46875 -0.171875 -1.171875 -0.296875q-0.859375 -0.1875 -1.578125 -0.4375q-0.703125 -0.25 -1.203125 -0.59375q-0.5 -0.34375 -0.78125 -0.8125q-0.28125 -0.46875 -0.28125 -1.09375q0 -0.609375 0.28125 -1.140625q0.296875 -0.546875 0.8125 -0.9375q0.515625 -0.40625 1.234375 -0.625q0.71875 -0.234375 1.578125 -0.234375q0.9375 0 1.671875 0.25q0.75 0.234375 1.265625 0.65625q0.515625 0.421875 0.796875 1.0q0.296875 0.5625 0.296875 1.21875l-1.71875 0q0 -0.3125 -0.171875 -0.625q-0.171875 -0.3125 -0.46875 -0.546875q-0.296875 -0.25 -0.71875 -0.390625q-0.421875 -0.15625 -0.953125 -0.15625q-0.546875 0 -0.953125 0.125q-0.40625 0.109375 -0.6875 0.3125q-0.265625 0.203125 -0.40625 0.484375q-0.140625 0.265625 -0.140625 0.546875q0 0.296875 0.109375 0.53125q0.109375 0.234375 0.375 0.421875q0.28125 0.1875 0.734375 0.34375q0.46875 0.140625 1.171875 0.28125q0.921875 0.1875 1.65625 0.453125q0.734375 0.25 1.234375 0.609375q0.5 0.359375 0.765625 0.828125q0.265625 0.46875 0.265625 1.09375q0 0.671875 -0.3125 1.21875q-0.296875 0.546875 -0.828125 0.9375q-0.53125 0.390625 -1.296875 0.609375q-0.75 0.203125 -1.640625 0.203125q-1.015625 0 -1.8125 -0.265625q-0.796875 -0.28125 -1.359375 -0.734375q-0.546875 -0.453125 -0.84375 -1.046875q-0.28125 -0.59375 -0.28125 -1.234375l1.71875 0q0.03125 0.53125 0.28125 0.890625q0.25 0.359375 0.609375 0.59375q0.375 0.21875 0.8125 0.3125q0.453125 0.09375 0.875 0.09375q1.09375 0 1.71875 -0.390625q0.640625 -0.40625 0.640625 -1.0625zm8.961197 2.84375q-1.0625 0 -1.953125 -0.359375q-0.875 -0.359375 -1.515625 -1.015625q-0.625 -0.65625 -0.984375 -1.546875q-0.34375 -0.890625 -0.34375 -1.9375l0 -0.390625q0 -1.203125 0.390625 -2.15625q0.390625 -0.96875 1.03125 -1.625q0.65625 -0.671875 1.46875 -1.015625q0.828125 -0.359375 1.6875 -0.359375q1.078125 0 1.890625 0.375q0.8125 0.375 1.34375 1.046875q0.546875 0.65625 0.8125 1.5625q0.265625 0.890625 0.265625 1.9375l0 0.765625l-7.171875 0q0.03125 0.6875 0.265625 1.296875q0.234375 0.59375 0.640625 1.046875q0.421875 0.453125 1.0 0.71875q0.578125 0.25 1.265625 0.25q0.921875 0 1.625 -0.359375q0.71875 -0.375 1.203125 -0.984375l1.046875 0.8125q-0.25 0.375 -0.625 0.734375q-0.375 0.34375 -0.875 0.609375q-0.484375 0.265625 -1.109375 0.421875q-0.625 0.171875 -1.359375 0.171875zm-0.21875 -9.0q-0.515625 0 -0.984375 0.1875q-0.46875 0.1875 -0.84375 0.5625q-0.359375 0.359375 -0.625 0.890625q-0.25 0.53125 -0.34375 1.234375l5.390625 0l0 -0.125q-0.03125 -0.5 -0.1875 -0.984375q-0.15625 -0.5 -0.484375 -0.890625q-0.3125 -0.390625 -0.796875 -0.625q-0.46875 -0.25 -1.125 -0.25zm11.039322 -3.65625l0 2.4375l3.828125 0l0 1.3125l-3.828125 0l0 5.46875q0 0.578125 0.140625 0.96875q0.15625 0.375 0.421875 0.609375q0.265625 0.21875 0.59375 0.3125q0.34375 0.09375 0.71875 0.09375q0.28125 0 0.578125 -0.03125q0.296875 -0.046875 0.578125 -0.078125q0.28125 -0.046875 0.53125 -0.09375q0.25 -0.0625 0.40625 -0.09375l0.234375 1.203125q-0.203125 0.140625 -0.515625 0.234375q-0.296875 0.09375 -0.671875 0.15625q-0.359375 0.078125 -0.765625 0.109375q-0.390625 0.046875 -0.796875 0.046875q-0.671875 0 -1.25 -0.1875q-0.578125 -0.1875 -1.015625 -0.59375q-0.421875 -0.421875 -0.671875 -1.078125q-0.234375 -0.65625 -0.234375 -1.578125l0 -5.46875l-2.640625 0l0 -1.3125l2.640625 0l0 -2.4375l1.71875 0zm13.804947 9.8125q0 -0.3125 -0.125 -0.546875q-0.109375 -0.25 -0.40625 -0.453125q-0.28125 -0.21875 -0.765625 -0.390625q-0.46875 -0.171875 -1.171875 -0.296875q-0.859375 -0.1875 -1.578125 -0.4375q-0.703125 -0.25 -1.203125 -0.59375q-0.5 -0.34375 -0.78125 -0.8125q-0.28125 -0.46875 -0.28125 -1.09375q0 -0.609375 0.28125 -1.140625q0.296875 -0.546875 0.8125 -0.9375q0.515625 -0.40625 1.234375 -0.625q0.71875 -0.234375 1.578125 -0.234375q0.9375 0 1.671875 0.25q0.75 0.234375 1.265625 0.65625q0.515625 0.421875 0.796875 1.0q0.296875 0.5625 0.296875 1.21875l-1.71875 0q0 -0.3125 -0.171875 -0.625q-0.171875 -0.3125 -0.46875 -0.546875q-0.296875 -0.25 -0.71875 -0.390625q-0.421875 -0.15625 -0.953125 -0.15625q-0.546875 0 -0.953125 0.125q-0.40625 0.109375 -0.6875 0.3125q-0.265625 0.203125 -0.40625 0.484375q-0.140625 0.265625 -0.140625 0.546875q0 0.296875 0.109375 0.53125q0.109375 0.234375 0.375 0.421875q0.28125 0.1875 0.734375 0.34375q0.46875 0.140625 1.171875 0.28125q0.921875 0.1875 1.65625 0.453125q0.734375 0.25 1.234375 0.609375q0.5 0.359375 0.765625 0.828125q0.265625 0.46875 0.265625 1.09375q0 0.671875 -0.3125 1.21875q-0.296875 0.546875 -0.828125 0.9375q-0.53125 0.390625 -1.296875 0.609375q-0.75 0.203125 -1.640625 0.203125q-1.015625 0 -1.8125 -0.265625q-0.796875 -0.28125 -1.359375 -0.734375q-0.546875 -0.453125 -0.84375 -1.046875q-0.28125 -0.59375 -0.28125 -1.234375l1.71875 0q0.03125 0.53125 0.28125 0.890625q0.25 0.359375 0.609375 0.59375q0.375 0.21875 0.8125 0.3125q0.453125 0.09375 0.875 0.09375q1.09375 0 1.71875 -0.390625q0.640625 -0.40625 0.640625 -1.0625z" fill-rule="nonzero"></path><path fill="#000000" fill-opacity="0.0" d="m187.7454 431.48032l0 55.496063" fill-rule="evenodd"></path><path stroke="#000000" stroke-width="3.0" stroke-linejoin="round" stroke-linecap="butt" d="m187.7454 431.48032l0 37.496063" fill-rule="evenodd"></path><path fill="#000000" stroke="#000000" stroke-width="3.0" stroke-linecap="butt" d="m182.7902 468.97638l4.9552 13.614288l4.9552 -13.614288z" fill-rule="evenodd"></path><path fill="#000000" fill-opacity="0.0" d="m187.7454 271.82285l0 55.496063" fill-rule="evenodd"></path><path stroke="#000000" stroke-width="3.0" stroke-linejoin="round" stroke-linecap="butt" d="m187.7454 271.82285l0 37.496063" fill-rule="evenodd"></path><path fill="#000000" stroke="#000000" stroke-width="3.0" stroke-linecap="butt" d="m182.7902 309.3189l4.9552 13.614288l4.9552 -13.614288z" fill-rule="evenodd"></path><path fill="#000000" fill-opacity="0.0" d="m187.7454 112.15748l0 55.49607" fill-rule="evenodd"></path><path stroke="#000000" stroke-width="3.0" stroke-linejoin="round" stroke-linecap="butt" d="m187.7454 112.15748l0 37.49607" fill-rule="evenodd"></path><path fill="#000000" stroke="#000000" stroke-width="3.0" stroke-linecap="butt" d="m182.7902 149.65355l4.9552 13.614288l4.9552 -13.614288z" fill-rule="evenodd"></path><path fill="#000000" fill-opacity="0.0" d="m96.343834 539.063c-44.171917 0 -88.35171 -79.834656 -88.343834 -159.66928c0.007874489 -79.834656 44.20341 -159.6693 88.40682 -159.6693" fill-rule="evenodd"></path><path stroke="#000000" stroke-width="3.0" stroke-linejoin="round" stroke-linecap="butt" d="m96.343834 539.063c-44.171917 0 -88.35171 -79.834656 -88.343834 -159.66928c0.0039367676 -39.917328 11.0547905 -79.834656 27.630085 -109.772644c8.287647 -14.968994 17.956406 -27.443161 28.315968 -36.17508c2.5898895 -2.1829834 5.222954 -4.132065 7.888405 -5.827774c1.3327255 -0.8478546 2.6735535 -1.6323547 4.021126 -2.3510895c0.67378235 -0.35935974 1.3492584 -0.70228577 2.0262527 -1.0284424c0.16925049 -0.08154297 0.33859253 -0.16203308 0.5080261 -0.2414856l0.4788208 -0.22138977" fill-rule="evenodd"></path><path fill="#000000" stroke="#000000" stroke-width="3.0" stroke-linecap="butt" d="m79.983986 228.60384l12.149666 -7.8923035l-14.380264 -1.763794z" fill-rule="evenodd"></path><path fill="#000000" fill-opacity="0.0" d="m279.14697 219.74016c29.363525 0 58.719177 -39.91339 58.72705 -79.82677c0.007873535 -39.91339 -29.332031 -79.82678 -58.664062 -79.82678" fill-rule="evenodd"></path><path stroke="#000000" stroke-width="3.0" stroke-linejoin="round" stroke-linecap="butt" d="m279.14697 219.74016c29.363525 0 58.719177 -39.91339 58.72705 -79.82677c0.0039367676 -19.956696 -7.329071 -39.91339 -18.32956 -54.880913c-5.500244 -7.483757 -11.917358 -13.720222 -18.792694 -18.085754c-0.8594055 -0.5456848 -1.7259827 -1.0621414 -2.598816 -1.5481567c-0.43643188 -0.24299622 -0.87438965 -0.47838593 -1.3138428 -0.7060089l-0.20159912 -0.10248566" fill-rule="evenodd"></path><path fill="#000000" stroke="#000000" stroke-width="3.0" stroke-linecap="butt" d="m297.87726 59.79247l-14.421051 1.3914146l11.941559 8.203796z" fill-rule="evenodd"></path></g></svg>

